<?xml version="1.0" encoding="iso-8859-1"?>
<!-- Generator: Adobe Illustrator 18.0.0, SVG Export Plug-In . SVG Version: 6.00 Build 0)  -->
<!DOCTYPE svg PUBLIC "-//W3C//DTD SVG 1.1//EN" "http://www.w3.org/Graphics/SVG/1.1/DTD/svg11.dtd">
<svg version="1.1" id="&#x56FE;&#x5C42;_1" xmlns="http://www.w3.org/2000/svg" xmlns:xlink="http://www.w3.org/1999/xlink" x="0px"
	 y="0px" viewBox="0 0 24 24" enable-background="new 0 0 24 24" xml:space="preserve">
<g>
	<path fill="#B5B5B6" d="M11.705,2.672c-0.177-0.07-0.51-0.03-0.64,0.111L6.109,8H3C2.448,8,2,8.448,2,9v6c0,0.552,0.448,1,1,1
		h3.108l4.934,5.273c0.09,0.098,0.318,0.305,0.662,0.174C11.882,21.38,12,21.171,12,20.979V3.104
		C12,2.913,11.883,2.741,11.705,2.672z"/>
	<path fill="#B5B5B6" d="M21.674,8.253c-0.486-1.147-1.181-2.177-2.066-3.062c-0.886-0.886-1.917-1.581-3.062-2.066
		c-0.356-0.152-0.764,0.016-0.913,0.37c-0.15,0.354,0.016,0.763,0.37,0.912c0.98,0.415,1.862,1.01,2.621,1.768
		c0.758,0.758,1.353,1.64,1.768,2.621c0.43,1.016,0.648,2.093,0.648,3.204s-0.218,2.188-0.649,3.205
		c-0.415,0.98-1.01,1.862-1.768,2.62c-0.759,0.758-1.64,1.353-2.621,1.768c-0.354,0.15-0.52,0.559-0.37,0.912
		c0.112,0.266,0.37,0.425,0.642,0.425c0.09,0,0.182-0.017,0.271-0.055c1.146-0.484,2.176-1.18,3.062-2.066
		c0.885-0.885,1.581-1.915,2.066-3.061c0.504-1.189,0.759-2.449,0.759-3.748S22.177,9.441,21.674,8.253z"/>
	<path fill="#B5B5B6" d="M18.68,14.483c0.334-0.787,0.503-1.623,0.503-2.483s-0.169-1.696-0.503-2.484
		c-0.322-0.759-0.783-1.442-1.369-2.029c-0.585-0.586-1.268-1.046-2.029-1.368c-0.354-0.151-0.763,0.015-0.913,0.369
		c-0.15,0.355,0.015,0.763,0.369,0.913c0.595,0.252,1.129,0.613,1.587,1.071c0.459,0.46,0.82,0.994,1.072,1.587
		c0.26,0.616,0.392,1.269,0.392,1.941s-0.132,1.325-0.392,1.94c-0.252,0.594-0.613,1.128-1.071,1.588
		c-0.458,0.458-0.993,0.819-1.588,1.071c-0.354,0.151-0.519,0.559-0.369,0.913c0.112,0.265,0.37,0.424,0.642,0.424
		c0.091,0,0.183-0.017,0.272-0.055c0.76-0.323,1.443-0.783,2.029-1.368C17.897,15.926,18.358,15.243,18.68,14.483z"/>
	<path fill="#B5B5B6" d="M15.565,13.185c0.164-0.388,0.247-0.798,0.247-1.221c0-0.422-0.083-0.832-0.247-1.221
		c-0.158-0.374-0.384-0.709-0.671-0.995c-0.287-0.287-0.623-0.513-0.996-0.671c-0.354-0.152-0.762,0.015-0.913,0.37
		c-0.15,0.354,0.016,0.763,0.37,0.912c0.207,0.088,0.393,0.213,0.554,0.375c0.16,0.159,0.285,0.345,0.373,0.552
		c0.091,0.215,0.137,0.443,0.137,0.677s-0.046,0.463-0.136,0.677c-0.088,0.209-0.214,0.394-0.374,0.554
		c-0.16,0.161-0.346,0.286-0.553,0.374c-0.355,0.15-0.52,0.559-0.37,0.912c0.112,0.266,0.37,0.425,0.642,0.425
		c0.09,0,0.182-0.017,0.271-0.055c0.373-0.158,0.708-0.384,0.995-0.67C15.18,13.895,15.406,13.56,15.565,13.185z"/>
</g>
</svg>
