<?xml version="1.0" encoding="iso-8859-1"?>
<!-- Generator: Adobe Illustrator 18.0.0, SVG Export Plug-In . SVG Version: 6.00 Build 0)  -->
<!DOCTYPE svg PUBLIC "-//W3C//DTD SVG 1.1//EN" "http://www.w3.org/Graphics/SVG/1.1/DTD/svg11.dtd">
<svg version="1.1" id="&#x56FE;&#x5C42;_1" xmlns="http://www.w3.org/2000/svg" xmlns:xlink="http://www.w3.org/1999/xlink" x="0px"
	 y="0px" viewBox="0 0 24 24" enable-background="new 0 0 24 24" xml:space="preserve">
<g>
	<path fill="#B5B5B6" d="M14,20v-2H3.883l4.137-6.117l2.484,2.022l3.181-5.858L17.486,13H21V5c0-0.552-0.448-1-1-1H3
		C2.448,4,2,4.448,2,5v14c0,0.552,0.448,1,1,1H14z M6.367,6.489c1.122,0,2.031,0.909,2.031,2.03c0,1.123-0.91,2.033-2.031,2.033
		c-1.123,0-2.031-0.91-2.031-2.033C4.335,7.398,5.244,6.489,6.367,6.489z"/>
	<g id="gear-icon_3_">
		<path fill="#B5B5B6" d="M22.997,18.602v-1.077l-0.583-0.207c-0.222-0.079-0.401-0.249-0.491-0.466l0,0
			c-0.09-0.218-0.084-0.464,0.017-0.678l0.265-0.558l-0.762-0.762l-0.558,0.265c-0.214,0.101-0.46,0.108-0.678,0.017h0
			c-0.217-0.09-0.387-0.285-0.466-0.507l-0.207-0.598h-1.077l-0.207,0.598c-0.079,0.222-0.248,0.409-0.466,0.499l-0.001,0.004
			c-0.218,0.09-0.464,0.086-0.678-0.015l-0.558-0.264l-0.762,0.762l0.265,0.558c0.101,0.214,0.108,0.46,0.017,0.678v0
			c-0.09,0.217-0.268,0.387-0.49,0.466l-0.581,0.207v1.077l0.581,0.207c0.222,0.079,0.4,0.248,0.491,0.466l0,0
			c0.09,0.218,0.084,0.465-0.017,0.678l-0.265,0.558l0.762,0.762l0.558-0.265c0.213-0.101,0.46-0.108,0.678-0.017h0.001
			c0.217,0.09,0.387,0.253,0.466,0.475l0.207,0.566h1.077l0.206-0.562c0.08-0.224,0.251-0.397,0.47-0.488l0,0
			c0.216-0.09,0.46-0.08,0.672,0.021l0.562,0.269l0.762-0.761l-0.265-0.557c-0.101-0.213-0.107-0.459-0.017-0.677v0
			c0.091-0.218,0.27-0.387,0.492-0.466L22.997,18.602z M18.996,19.778c-0.947,0-1.714-0.767-1.714-1.714
			c0-0.947,0.767-1.714,1.714-1.714c0.947,0,1.714,0.767,1.714,1.714C20.71,19.011,19.942,19.778,18.996,19.778z"/>
	</g>
</g>
</svg>
