<?xml version="1.0" encoding="iso-8859-1"?>
<!-- Generator: Adobe Illustrator 18.0.0, SVG Export Plug-In . SVG Version: 6.00 Build 0)  -->
<!DOCTYPE svg PUBLIC "-//W3C//DTD SVG 1.1//EN" "http://www.w3.org/Graphics/SVG/1.1/DTD/svg11.dtd">
<svg version="1.1" id="&#x56FE;&#x5C42;_1" xmlns="http://www.w3.org/2000/svg" xmlns:xlink="http://www.w3.org/1999/xlink" x="0px"
	 y="0px" viewBox="0 0 64 64" enable-background="new 0 0 64 64" xml:space="preserve">
<g>
	<path fill="#B5B5B6" d="M52.335,19h-40.03v-2c0-1.657,1.343-3,3-3h21.372l2.463-3h10.195c1.657,0,3,1.343,3,3V19z"/>
	<path fill="#B5B5B6" d="M54.335,21h-44.03C9.754,21,9,21.448,9,22v29.948C9,53.604,10.649,55,12.306,55h40.03
		C53.992,55,55,53.604,55,51.948V22C55,21.448,54.888,21,54.335,21z M40.95,37.535l-6.822,3.541l-7.11,3.619
		C26.616,44.903,26,44.612,26,44.16V37v-7.16c0-0.452,0.617-0.743,1.018-0.535l7.042,3.62l6.856,3.54
		C41.349,36.69,41.383,37.31,40.95,37.535z"/>
</g>
</svg>
