<?xml version="1.0" encoding="iso-8859-1"?>
<!-- Generator: Adobe Illustrator 18.0.0, SVG Export Plug-In . SVG Version: 6.00 Build 0)  -->
<!DOCTYPE svg PUBLIC "-//W3C//DTD SVG 1.1//EN" "http://www.w3.org/Graphics/SVG/1.1/DTD/svg11.dtd">
<svg version="1.1" id="&#x56FE;&#x5C42;_1" xmlns="http://www.w3.org/2000/svg" xmlns:xlink="http://www.w3.org/1999/xlink" x="0px"
	 y="0px" viewBox="0 0 24 24" enable-background="new 0 0 24 24" xml:space="preserve">
<path fill="#B5B5B6" d="M20,2H3C2.448,2,2,2.448,2,3v17c0,0.552,0.448,1,1,1h17c0.552,0,1-0.448,1-1V3C21,2.448,20.552,2,20,2z
	 M17,10h-1.047c-0.158-1-0.395-1.383-0.711-1.625C14.926,8.133,14.754,8,13.87,8H13v6.469c0,1.44,2,1.469,2,1.469V17H8v-1.063
	c0,0,2-0.029,2-1.493V8.016L9.079,8.015c-0.423,0-0.996,0.118-1.312,0.36C7.452,8.617,7.209,9,7.041,10H6l0.5-4h10L17,10z"/>
</svg>
