<?xml version="1.0" encoding="iso-8859-1"?>
<!-- Generator: Adobe Illustrator 18.0.0, SVG Export Plug-In . SVG Version: 6.00 Build 0)  -->
<!DOCTYPE svg PUBLIC "-//W3C//DTD SVG 1.1//EN" "http://www.w3.org/Graphics/SVG/1.1/DTD/svg11.dtd">
<svg version="1.1" id="&#x56FE;&#x5C42;_1" xmlns="http://www.w3.org/2000/svg" xmlns:xlink="http://www.w3.org/1999/xlink" x="0px"
	 y="0px" viewBox="0 0 24 24" enable-background="new 0 0 24 24" xml:space="preserve">
<g>
	<path fill="#B5B5B6" d="M12,1.442c-5.834,0-10.563,4.729-10.563,10.563S6.166,22.567,12,22.567s10.563-4.729,10.563-10.563
		S17.834,1.442,12,1.442z M12,20.536c-4.712,0-8.531-3.82-8.531-8.531c0-4.712,3.82-8.531,8.531-8.531s8.531,3.82,8.531,8.531
		C20.531,16.716,16.712,20.536,12,20.536z"/>
	<path fill="#B5B5B6" d="M8,17.004V6.996C8,6.77,8.239,6.625,8.439,6.73l9.553,5.004c0.214,0.112,0.214,0.419,0,0.531L8.439,17.27
		C8.239,17.375,8,17.23,8,17.004z"/>
</g>
</svg>
