<?xml version="1.0" encoding="iso-8859-1"?>
<!-- Generator: Adobe Illustrator 18.0.0, SVG Export Plug-In . SVG Version: 6.00 Build 0)  -->
<!DOCTYPE svg PUBLIC "-//W3C//DTD SVG 1.1//EN" "http://www.w3.org/Graphics/SVG/1.1/DTD/svg11.dtd">
<svg version="1.1" id="&#x56FE;&#x5C42;_1" xmlns="http://www.w3.org/2000/svg" xmlns:xlink="http://www.w3.org/1999/xlink" x="0px"
	 y="0px" viewBox="0 0 64 64" enable-background="new 0 0 64 64" xml:space="preserve">
<path fill="#B5B5B6" d="M51,10H13c-1.657,0-3,1.343-3,3v38c0,1.657,1.343,3,3,3h38c1.657,0,3-1.343,3-3V13
	C54,11.343,52.657,10,51,10z M43,26h-1.289c-0.368-2-0.921-2.894-1.658-3.458C39.317,21.978,37.917,22,35.854,22H34v17.438
	c0,1.272,0.116,2.092,0.516,2.563C35.047,42.625,37,43.016,38,43.016V45H26v-1.984c1,0,2.875-0.188,3.594-1
	C29.913,41.608,30,40.868,30,39.38V22h-1.88c-2.039,0-3.426-0.022-4.163,0.542C23.221,23.106,22.656,24,22.263,26H21v-6h22V26z"/>
</svg>
