<?xml version="1.0" encoding="utf-8"?>
<!-- Generator: Adobe Illustrator 18.0.0, SVG Export Plug-In . SVG Version: 6.00 Build 0)  -->
<!DOCTYPE svg PUBLIC "-//W3C//DTD SVG 1.1//EN" "http://www.w3.org/Graphics/SVG/1.1/DTD/svg11.dtd">
<svg version="1.1" id="图层_1" xmlns="http://www.w3.org/2000/svg" xmlns:xlink="http://www.w3.org/1999/xlink" x="0px" y="0px"
	 viewBox="0 0 20 20" enable-background="new 0 0 20 20" xml:space="preserve">
<rect y="0.1" opacity="0" fill="#FFFFFF" width="20" height="20"/>
<g>
	<path fill="#505050" d="M17.4,6.1l-3.7-2.9c-0.2-0.2-0.5,0-0.5,0.3v1.8H3.6C3,5.2,2.5,5.7,2.5,6.3v4.3L4.6,9c0,0,0,0,0-1
		c0-0.6,0.5-0.5,0.5-0.5h8v1.8c0,0.3,0.3,0.4,0.5,0.3l3.6-2.9C17.5,6.5,17.5,6.2,17.4,6.1z"/>
	<path fill="#505050" d="M15.4,11.2c0,0,0,0,0,1c0,0.6-0.5,0.5-0.5,0.5h-8v-1.8c0-0.3-0.3-0.4-0.5-0.3l-3.6,2.9
		c-0.2,0.1-0.2,0.4,0,0.5L6.3,17c0.2,0.2,0.5,0,0.5-0.3v-1.8h9.6c0.6,0,1.1-0.5,1.1-1V9.5L15.4,11.2z"/>
</g>
</svg>
