<?xml version="1.0" encoding="utf-8"?>
<!-- Generator: Adobe Illustrator 18.0.0, SVG Export Plug-In . SVG Version: 6.00 Build 0)  -->
<!DOCTYPE svg PUBLIC "-//W3C//DTD SVG 1.1//EN" "http://www.w3.org/Graphics/SVG/1.1/DTD/svg11.dtd">
<svg version="1.1" id="图层_1" xmlns="http://www.w3.org/2000/svg" xmlns:xlink="http://www.w3.org/1999/xlink" x="0px" y="0px"
	 viewBox="0 0 20 20" enable-background="new 0 0 20 20" xml:space="preserve">
<rect opacity="0" fill="#FFFFFF" width="20" height="20"/>
<polygon fill="#505050" points="5.6,6.9 1.9,6.9 1.9,13.1 5.6,13.1 9.4,16.9 9.4,3.1 "/>
<path fill="none" stroke="#404040" stroke-linecap="round" stroke-miterlimit="10" d="M13.9,3.7c0.8,0.3,1.6,0.9,2.2,1.5
	c0.6,0.6,1.1,1.4,1.5,2.2c0.3,0.8,0.5,1.7,0.5,2.7c0,0.9-0.2,1.9-0.5,2.7c-0.3,0.8-0.9,1.6-1.5,2.2c-0.6,0.6-1.4,1.1-2.2,1.5"/>
<path fill="none" stroke="#404040" stroke-linecap="round" stroke-miterlimit="10" d="M13,6c0.5,0.2,1,0.5,1.4,0.9
	c0.4,0.4,0.7,0.9,0.9,1.4c0.2,0.5,0.3,1.1,0.3,1.7c0,0.6-0.1,1.2-0.3,1.7c-0.2,0.5-0.5,1-0.9,1.4c-0.4,0.4-0.9,0.7-1.4,0.9"/>
<path fill="none" stroke="#404040" stroke-linecap="round" stroke-miterlimit="10" d="M11.9,8.3c0.2,0.1,0.4,0.2,0.6,0.4
	c0.2,0.2,0.3,0.4,0.4,0.6C13,9.5,13,9.7,13,10s-0.1,0.5-0.1,0.7c-0.1,0.2-0.2,0.4-0.4,0.6c-0.2,0.2-0.4,0.3-0.6,0.4"/>
</svg>
