<?xml version="1.0" encoding="utf-8"?>
<!-- Generator: Adobe Illustrator 18.0.0, SVG Export Plug-In . SVG Version: 6.00 Build 0)  -->
<!DOCTYPE svg PUBLIC "-//W3C//DTD SVG 1.1//EN" "http://www.w3.org/Graphics/SVG/1.1/DTD/svg11.dtd">
<svg version="1.1" id="图层_1" xmlns="http://www.w3.org/2000/svg" xmlns:xlink="http://www.w3.org/1999/xlink" x="0px" y="0px"
	 viewBox="0 0 20 20" enable-background="new 0 0 20 20" xml:space="preserve">
<rect x="-0.1" y="-0.1" opacity="0" fill="#FFFFFF" width="20" height="20"/>
<g>
	<path fill="#505050" d="M12.5,3c-0.2,0-0.1,0-0.1-0.2V2.1c0,0-0.5,0-0.7,0H8c-0.2,0-0.6,0-0.6,0v0.6C7.4,2.9,7.5,3,7.3,3H3.6
		C3.4,3,3.2,3.3,3.2,3.5v0.4c0,0.2,0.2,0.8,0.4,0.8h12.6c0.2,0,0.4-0.6,0.4-0.8V3.5c0-0.2-0.2-0.5-0.4-0.5H12.5z"/>
	<g>
		<path fill="#505050" d="M5.4,17.6h8.9c0.6,0,1.1-0.5,1.1-1.1v-10c0-0.6-0.5-1.1-1.1-1.1H5.4c-0.6,0-1.1,0.5-1.1,1.1v10
			C4.3,17.1,4.8,17.6,5.4,17.6z M13.2,6.4L13.2,6.4c0.6,0,1.1,0.5,1.1,1.1v7.8c0,0.6-0.5,1.1-1.1,1.1h0c-0.6,0-1.1-0.5-1.1-1.1V7.5
			C12.1,6.9,12.6,6.4,13.2,6.4z M9.9,6.4L9.9,6.4c0.6,0,1.1,0.5,1.1,1.1v7.8c0,0.6-0.5,1.1-1.1,1.1h0c-0.6,0-1.1-0.5-1.1-1.1V7.5
			C8.8,6.9,9.3,6.4,9.9,6.4z M6.5,6.4L6.5,6.4c0.6,0,1.1,0.5,1.1,1.1v7.8c0,0.6-0.5,1.1-1.1,1.1h0c-0.6,0-1.1-0.5-1.1-1.1V7.5
			C5.4,6.9,5.9,6.4,6.5,6.4z"/>
	</g>
</g>
</svg>
