<?xml version="1.0" encoding="utf-8"?>
<!-- Generator: Adobe Illustrator 18.0.0, SVG Export Plug-In . SVG Version: 6.00 Build 0)  -->
<!DOCTYPE svg PUBLIC "-//W3C//DTD SVG 1.1//EN" "http://www.w3.org/Graphics/SVG/1.1/DTD/svg11.dtd">
<svg version="1.1" id="图层_1" xmlns="http://www.w3.org/2000/svg" xmlns:xlink="http://www.w3.org/1999/xlink" x="0px" y="0px"
	 viewBox="0 0 20 20" enable-background="new 0 0 20 20" xml:space="preserve">
<rect y="0" opacity="0" fill="#FFFFFF" width="20" height="20"/>
<path fill="#505050" d="M5.8,6.1c0,0.3-0.3,0.6-0.6,0.6H4c-0.3,0-0.6-0.3-0.6-0.6V4.9c0-0.3,0.3-0.7,0.6-0.7h1.2
	c0.3,0,0.6,0.3,0.6,0.7V6.1z"/>
<path fill="#505050" d="M5.8,11.1c0,0.3-0.3,0.6-0.6,0.6H4c-0.3,0-0.6-0.3-0.6-0.6V9.8c0-0.3,0.3-0.6,0.6-0.6h1.2
	c0.3,0,0.6,0.3,0.6,0.6V11.1z"/>
<path fill="#505050" d="M5.8,16.1c0,0.3-0.3,0.7-0.6,0.7H4c-0.3,0-0.6-0.3-0.6-0.7v-1.2c0-0.3,0.3-0.6,0.6-0.6h1.2
	c0.3,0,0.6,0.3,0.6,0.6V16.1z"/>
<path fill="#505050" d="M15.7,16.7H8.5c-0.6,0-1-0.4-1-1v-0.5c0-0.6,0.4-1,1-1h7.2c0.6,0,1,0.4,1,1v0.5
	C16.7,16.3,16.2,16.7,15.7,16.7z"/>
<path fill="#505050" d="M15.7,11.7H8.5c-0.6,0-1-0.4-1-1v-0.5c0-0.6,0.4-1,1-1h7.2c0.6,0,1,0.4,1,1v0.5
	C16.7,11.3,16.2,11.7,15.7,11.7z"/>
<path fill="#505050" d="M15.7,6.7H8.5c-0.6,0-1-0.4-1-1V5.2c0-0.6,0.4-1,1-1h7.2c0.6,0,1,0.4,1,1v0.5C16.7,6.3,16.2,6.7,15.7,6.7z"
	/>
</svg>
