<?xml version="1.0" encoding="iso-8859-1"?>
<!-- Generator: Adobe Illustrator 18.0.0, SVG Export Plug-In . SVG Version: 6.00 Build 0)  -->
<!DOCTYPE svg PUBLIC "-//W3C//DTD SVG 1.1//EN" "http://www.w3.org/Graphics/SVG/1.1/DTD/svg11.dtd">
<svg version="1.1" id="&#x56FE;&#x5C42;_1" xmlns="http://www.w3.org/2000/svg" xmlns:xlink="http://www.w3.org/1999/xlink" x="0px"
	 y="0px" viewBox="0 0 24 24" enable-background="new 0 0 24 24" xml:space="preserve">
<g>
	<path fill="#B5B5B6" d="M21,6H3V5c0-0.552,0.448-1,1-1h10.085l1.071-2H20c0.552,0,1,0.448,1,1V6z"/>
	<path fill="#B5B5B6" d="M21.5,7h-19C2.224,7,2,7.224,2,7.5V20c0,0.552,0.448,1,1,1h18c0.552,0,1-0.448,1-1V7.5
		C22,7.224,21.776,7,21.5,7z M9,16.998v-5.995c0-0.227,0.242-0.372,0.442-0.264l5.567,2.998c0.21,0.113,0.21,0.415,0,0.528
		l-5.567,2.998C9.242,17.369,9,17.225,9,16.998z"/>
</g>
</svg>
