<?xml version="1.0" encoding="utf-8"?>
<!-- Generator: Adobe Illustrator 18.0.0, SVG Export Plug-In . SVG Version: 6.00 Build 0)  -->
<!DOCTYPE svg PUBLIC "-//W3C//DTD SVG 1.1//EN" "http://www.w3.org/Graphics/SVG/1.1/DTD/svg11.dtd">
<svg version="1.1" id="图层_1" xmlns="http://www.w3.org/2000/svg" xmlns:xlink="http://www.w3.org/1999/xlink" x="0px" y="0px"
	 viewBox="0 0 20 20" enable-background="new 0 0 20 20" xml:space="preserve">
<path id="info-2-icon_2_" fill="#505050" d="M8.1,13.8H6.9c-0.3,0-0.6-0.3-0.6-0.6V6.9c0-0.3,0.3-0.6,0.6-0.6h1.3
	c0.3,0,0.6,0.3,0.6,0.6v6.3C8.8,13.5,8.5,13.8,8.1,13.8z M13.1,13.8h-1.3c-0.3,0-0.6-0.3-0.6-0.6V6.9c0-0.3,0.3-0.6,0.6-0.6h1.3
	c0.3,0,0.6,0.3,0.6,0.6v6.3C13.8,13.5,13.5,13.8,13.1,13.8z"/>
<rect x="-0.1" opacity="0" fill="#FFFFFF" width="20" height="20"/>
<circle fill="none" stroke="#404040" stroke-miterlimit="10" cx="10" cy="10.1" r="8.1"/>
</svg>
