<?xml version="1.0" encoding="iso-8859-1"?>
<!-- Generator: Adobe Illustrator 18.0.0, SVG Export Plug-In . SVG Version: 6.00 Build 0)  -->
<!DOCTYPE svg PUBLIC "-//W3C//DTD SVG 1.1//EN" "http://www.w3.org/Graphics/SVG/1.1/DTD/svg11.dtd">
<svg version="1.1" id="&#x56FE;&#x5C42;_1" xmlns="http://www.w3.org/2000/svg" xmlns:xlink="http://www.w3.org/1999/xlink" x="0px"
	 y="0px" viewBox="0 0 64 64" enable-background="new 0 0 64 64" xml:space="preserve">
<g>
	<circle fill="#B5B5B6" cx="48.99" cy="45.042" r="2"/>
	<path fill="#B5B5B6" d="M36,50v-6H13.914c-0.804,0-1.279-0.9-0.826-1.564l8.496-12.435c0.332-0.486,1.009-0.581,1.463-0.207
		l4.335,3.583c0.485,0.401,1.215,0.26,1.515-0.293l6.332-11.631c0.387-0.71,1.412-0.692,1.773,0.032l7.609,13.052L45.505,32H54V13
		c0-1.657-1.343-3-3-3H10c-1.657,0-3,1.343-3,3v34c0,1.657,1.343,3,3,3H36z M18.133,15.973c2.761,0,5,2.238,5,4.996
		c0,2.763-2.239,5.004-5,5.004c-2.764,0-5-2.24-5-5.004C13.133,18.211,15.369,15.973,18.133,15.973z"/>
	<g id="gear-icon_6_">
		<path fill="#B5B5B6" d="M58.992,46.388v-2.692l-1.457-0.518c-0.554-0.199-1.002-0.622-1.227-1.166l0-0.001
			c-0.226-0.546-0.211-1.161,0.042-1.695l0.663-1.394l-1.904-1.904l-1.394,0.662c-0.534,0.253-1.151,0.269-1.695,0.043h-0.001
			c-0.544-0.226-0.968-0.712-1.165-1.268l-0.518-1.495h-2.694l-0.517,1.495c-0.198,0.555-0.621,1.022-1.165,1.247l-0.002,0.01
			c-0.545,0.226-1.16,0.215-1.694-0.038l-1.394-0.66l-1.905,1.905l0.663,1.395c0.253,0.534,0.269,1.149,0.043,1.695v0.001
			c-0.226,0.544-0.671,0.967-1.226,1.166l-1.453,0.518v2.692l1.453,0.518c0.555,0.198,1,0.621,1.226,1.164l0,0.001
			c0.226,0.546,0.211,1.161-0.043,1.695l-0.663,1.394l1.905,1.904l1.394-0.662c0.533-0.253,1.149-0.269,1.694-0.043h0.002
			c0.544,0.225,0.967,0.632,1.165,1.187l0.517,1.415h2.694l0.514-1.405c0.2-0.561,0.628-0.991,1.176-1.22l0,0
			c0.541-0.225,1.151-0.199,1.679,0.052l1.404,0.672l1.904-1.902l-0.663-1.394c-0.253-0.533-0.268-1.148-0.043-1.693v-0.001
			c0.226-0.544,0.675-0.967,1.23-1.166L58.992,46.388z M48.989,49.328c-2.367,0-4.286-1.918-4.286-4.286
			c0-2.367,1.918-4.286,4.286-4.286c2.366,0,4.286,1.918,4.286,4.286C53.275,47.41,51.355,49.328,48.989,49.328z"/>
	</g>
</g>
</svg>
