<?xml version="1.0" encoding="utf-8"?>
<!-- Generator: Adobe Illustrator 18.0.0, SVG Export Plug-In . SVG Version: 6.00 Build 0)  -->
<!DOCTYPE svg PUBLIC "-//W3C//DTD SVG 1.1//EN" "http://www.w3.org/Graphics/SVG/1.1/DTD/svg11.dtd">
<svg version="1.1" id="图层_1" xmlns="http://www.w3.org/2000/svg" xmlns:xlink="http://www.w3.org/1999/xlink" x="0px" y="0px"
	 viewBox="0 0 16 16" enable-background="new 0 0 16 16" xml:space="preserve">
<path fill="#FFFFFF" d="M13,12c0,0.6-0.4,1-1,1H4c-0.6,0-1-0.4-1-1V4c0-0.6,0.4-1,1-1h8c0.6,0,1,0.4,1,1V12z"/>
<path fill="#FFFFFF" d="M4.8,3.8L3,2l1.5-1.5C4.7,0.3,4.5,0,4.3,0h-4C0.1,0,0,0.1,0,0.3v4c0,0.3,0.3,0.4,0.5,0.2L2,3l1.8,1.8
	C4,5,4.3,5,4.5,4.8l0.3-0.3C5,4.3,5,4,4.8,3.8z"/>
<path fill="#FFFFFF" d="M12.2,4.8L14,3l1.5,1.5C15.7,4.7,16,4.5,16,4.3v-4C16,0.1,15.9,0,15.7,0h-4c-0.3,0-0.4,0.3-0.2,0.5L13,2
	l-1.8,1.8C11,4,11,4.3,11.2,4.5l0.3,0.3C11.7,5,12,5,12.2,4.8z"/>
<path fill="#FFFFFF" d="M11.2,12.2L13,14l-1.5,1.5c-0.2,0.2-0.1,0.5,0.2,0.5h4c0.2,0,0.3-0.1,0.3-0.3v-4c0-0.3-0.3-0.4-0.5-0.2
	L14,13l-1.8-1.8c-0.2-0.2-0.5-0.2-0.7,0l-0.3,0.3C11,11.7,11,12,11.2,12.2z"/>
<path fill="#FFFFFF" d="M3.8,11.2L2,13l-1.5-1.5C0.3,11.3,0,11.5,0,11.7l0,4C0,15.9,0.1,16,0.3,16h4c0.3,0,0.4-0.3,0.2-0.5L3,14
	l1.8-1.8C5,12,5,11.7,4.8,11.5l-0.3-0.3C4.3,11,4,11,3.8,11.2z"/>
</svg>
