<?xml version="1.0" encoding="utf-8"?>
<!-- Generator: Adobe Illustrator 16.0.0, SVG Export Plug-In . SVG Version: 6.00 Build 0)  -->
<!DOCTYPE svg PUBLIC "-//W3C//DTD SVG 1.1//EN" "http://www.w3.org/Graphics/SVG/1.1/DTD/svg11.dtd">
<svg version="1.1" id="图层_1" xmlns="http://www.w3.org/2000/svg" xmlns:xlink="http://www.w3.org/1999/xlink" x="0px" y="0px"
	 width="80px" height="80px" viewBox="0 0 80 80" enable-background="new 0 0 80 80" xml:space="preserve">
<path fill="none" d="M39.938,12.914c-14.855,0-26.94,12.085-26.94,26.94c0,14.854,12.085,26.939,26.94,26.939
	c14.854,0,26.94-12.085,26.94-26.939C66.878,25,54.792,12.914,39.938,12.914z M56.902,45.152L35.483,59.423
	c-1.239,0.827-2.489,1.246-3.713,1.246c-2.956,0-5.021-2.435-5.021-5.92V24.961c0-3.486,2.065-5.922,5.021-5.922
	c1.225,0,2.474,0.419,3.713,1.246l21.421,14.268c1.973,1.315,3.104,3.247,3.104,5.302C60.008,41.909,58.876,43.841,56.902,45.152z"
	/>
<g opacity="0.25">
	<path d="M56.904,34.553L35.483,20.285c-1.24-0.827-2.489-1.246-3.713-1.246c-2.956,0-5.021,2.436-5.021,5.922v29.788
		c0,3.485,2.065,5.92,5.021,5.92c1.225,0,2.474-0.419,3.713-1.246l21.419-14.271c1.974-1.312,3.105-3.243,3.105-5.297
		C60.008,37.8,58.877,35.868,56.904,34.553z M55.491,43.031l-5.938,3.957c-2.625,1.749-6.92,4.611-9.545,6.358l-5.938,3.956
		c-2.625,1.749-4.773,0.601-4.773-2.554V45.59c0-3.154,0-8.316,0-11.471v-9.158c0-3.154,2.148-4.305,4.773-2.556l5.938,3.956
		c2.625,1.748,6.92,4.61,9.545,6.358l5.938,3.955C58.116,38.423,58.116,41.285,55.491,43.031z"/>
	<path d="M39.938,10.366c-16.26,0-29.489,13.229-29.489,29.489c0,16.262,13.229,29.487,29.489,29.487s29.488-13.226,29.488-29.487
		C69.426,23.594,56.197,10.366,39.938,10.366z M39.938,66.794c-14.855,0-26.94-12.085-26.94-26.939
		c0-14.855,12.085-26.94,26.94-26.94c14.854,0,26.94,12.085,26.94,26.94C66.878,54.709,54.792,66.794,39.938,66.794z"/>
	<path d="M39.938,0.125c-21.907,0-39.729,17.822-39.729,39.729s17.823,39.729,39.729,39.729c21.907,0,39.729-17.821,39.729-39.729
		S61.845,0.125,39.938,0.125z M39.938,77.035c-20.502,0-37.181-16.681-37.181-37.181c0-20.502,16.679-37.181,37.181-37.181
		s37.182,16.679,37.182,37.181C77.119,60.354,60.439,77.035,39.938,77.035z"/>
</g>
<g opacity="0.53">
	<path fill="#FFFFFF" d="M39.938,2.673c-20.502,0-37.181,16.679-37.181,37.181c0,20.5,16.679,37.181,37.181,37.181
		s37.182-16.681,37.182-37.181C77.119,19.352,60.439,2.673,39.938,2.673z M39.938,69.342c-16.26,0-29.489-13.226-29.489-29.487
		c0-16.26,13.229-29.489,29.489-29.489s29.488,13.229,29.488,29.489C69.426,56.116,56.197,69.342,39.938,69.342z"/>
	<path fill="#FFFFFF" d="M55.491,36.674l-5.938-3.955c-2.625-1.748-6.92-4.61-9.545-6.358l-5.938-3.956
		c-2.625-1.75-4.773-0.599-4.773,2.556v9.158c0,3.155,0,8.316,0,11.471v9.159c0,3.154,2.148,4.303,4.773,2.554l5.938-3.956
		c2.625-1.747,6.92-4.609,9.545-6.358l5.938-3.957C58.116,41.285,58.116,38.423,55.491,36.674z"/>
</g>
</svg>
