<?xml version="1.0" encoding="utf-8"?>
<!-- Generator: Adobe Illustrator 16.0.0, SVG Export Plug-In . SVG Version: 6.00 Build 0)  -->
<!DOCTYPE svg PUBLIC "-//W3C//DTD SVG 1.1//EN" "http://www.w3.org/Graphics/SVG/1.1/DTD/svg11.dtd">
<svg version="1.1" id="图层_1" xmlns="http://www.w3.org/2000/svg" xmlns:xlink="http://www.w3.org/1999/xlink" x="0px" y="0px"
	 width="38px" height="38px" viewBox="0 0 38 38" enable-background="new 0 0 38 38" xml:space="preserve">
<path id="info-2-icon_1_" fill="#A2A2A2" d="M18.733,4.75c7.877,0,14.253,6.373,14.253,14.25c0,7.874-6.374,14.25-14.253,14.25
	c-7.874,0-14.248-6.373-14.248-14.25S10.859,4.75,18.733,4.75 M18.735,2.375C9.554,2.375,2.11,9.818,2.11,19
	c0,9.183,7.443,16.625,16.625,16.625c9.183,0,16.626-7.442,16.626-16.625C35.361,9.818,27.918,2.375,18.735,2.375L18.735,2.375z
	 M13.977,10.804l12.949,7.556c0.473,0.274,0.473,0.956,0,1.232l-12.951,7.552c-0.474,0.275-1.071-0.065-1.071-0.615V11.42
	C12.903,10.871,13.501,10.527,13.977,10.804z"/>
</svg>
