<?xml version="1.0" encoding="iso-8859-1"?>
<!-- Generator: Adobe Illustrator 18.0.0, SVG Export Plug-In . SVG Version: 6.00 Build 0)  -->
<!DOCTYPE svg PUBLIC "-//W3C//DTD SVG 1.1//EN" "http://www.w3.org/Graphics/SVG/1.1/DTD/svg11.dtd">
<svg version="1.1" id="&#x56FE;&#x5C42;_1" xmlns="http://www.w3.org/2000/svg" xmlns:xlink="http://www.w3.org/1999/xlink" x="0px"
	 y="0px" viewBox="0 0 32 32" enable-background="new 0 0 32 32" xml:space="preserve">
<path fill="#01BDFF" d="M27.5,5h-23C3.673,5,3,5.673,3,6.5v17.018C3,24.335,3.673,25,4.5,25H13v2h-2c-0.276,0-0.5,0.224-0.5,0.5
	S10.724,28,11,28h10c0.276,0,0.5-0.224,0.5-0.5S21.276,27,21,27h-2v-2h8.5c0.827,0,1.5-0.665,1.5-1.482V6.5
	C29,5.673,28.327,5,27.5,5z M4,6.5C4,6.225,4.225,6,4.5,6h23C27.775,6,28,6.225,28,6.5V23H4V6.5z"/>
</svg>
