<?xml version="1.0" encoding="iso-8859-1"?>
<!-- Generator: Adobe Illustrator 18.0.0, SVG Export Plug-In . SVG Version: 6.00 Build 0)  -->
<!DOCTYPE svg PUBLIC "-//W3C//DTD SVG 1.1//EN" "http://www.w3.org/Graphics/SVG/1.1/DTD/svg11.dtd">
<svg version="1.1" id="&#x56FE;&#x5C42;_1" xmlns="http://www.w3.org/2000/svg" xmlns:xlink="http://www.w3.org/1999/xlink" x="0px"
	 y="0px" viewBox="0 0 24 24" enable-background="new 0 0 24 24" xml:space="preserve">
<g>
	<rect x="9" y="16.016" fill="#A2A2A2" width="1" height="1"/>
	<rect x="17" y="11.016" fill="#A2A2A2" width="1" height="1"/>
	<rect x="11.984" y="7" fill="#A2A2A2" width="1" height="1"/>
	<rect x="4" y="8" fill="#A2A2A2" width="1" height="1"/>
	<polygon fill="#A2A2A2" points="16,8 17,8 17,7 18,7 18,6 17,6 17,5 16,5 16,6 15,6 15,7 16,7 	"/>
	<polygon fill="#A2A2A2" points="9,6 10,6 10,5 11,5 11,4 10,4 10,3 9,3 9,4 8,4 8,5 9,5 	"/>
	<polygon fill="#A2A2A2" points="6,12 5,12 5,13 4,13 4,14 5,14 5,15 6,15 6,14 7,14 7,13 6,13 	"/>
	<path fill="#A2A2A2" d="M20.133,17.988l-6.166-6.166l-2.429-2.429c-0.575-0.575-1.516-0.566-2.102,0.02
		c-0.586,0.586-0.595,1.527-0.02,2.102l2.429,2.429l6.166,6.166c0.575,0.575,1.516,0.566,2.102-0.02
		C20.699,19.504,20.708,18.563,20.133,17.988z M12.552,13.236l-2.429-2.429c-0.191-0.191-0.189-0.505,0.007-0.701
		c0.195-0.195,0.509-0.198,0.701-0.007l2.429,2.429L12.552,13.236z"/>
</g>
</svg>
