<?xml version="1.0" encoding="iso-8859-1"?>
<!-- Generator: Adobe Illustrator 18.0.0, SVG Export Plug-In . SVG Version: 6.00 Build 0)  -->
<!DOCTYPE svg PUBLIC "-//W3C//DTD SVG 1.1//EN" "http://www.w3.org/Graphics/SVG/1.1/DTD/svg11.dtd">
<svg version="1.1" id="&#x56FE;&#x5C42;_1" xmlns="http://www.w3.org/2000/svg" xmlns:xlink="http://www.w3.org/1999/xlink" x="0px"
	 y="0px" viewBox="0 0 24 24" enable-background="new 0 0 24 24" xml:space="preserve">
<g>
	<path fill="#FFFFFF" d="M10.976,13c-0.286,1.133-1.49,1.984-2.934,1.984c-1.657,0-3-1.119-3-2.5c0-1.381,1.343-2.5,3-2.5
		c1.458,0,2.671,0.867,2.941,2.016h9.985c-0.289-4.186-4.19-7.504-8.972-7.504c-3.095,0-5.824,1.39-7.444,3.504H11.1
		c0.271-1.149,1.483-2.016,2.941-2.016c1.657,0,3,1.119,3,2.5c0,1.381-1.343,2.5-3,2.5c-1.444,0-2.649-0.851-2.934-1.984H3.91
		c-0.58,1.057-0.914,2.24-0.914,3.496c0,1.259,0.336,2.445,0.919,3.504H11.1c0.271-1.149,1.483-2.016,2.941-2.016
		c1.657,0,3,1.119,3,2.5c0,1.381-1.343,2.5-3,2.5c-1.444,0-2.649-0.851-2.934-1.984H4.56c1.62,2.11,4.346,3.496,7.436,3.496
		c4.779,0,8.677-3.313,8.971-7.496H10.976z"/>
</g>
</svg>
