<?xml version="1.0" encoding="iso-8859-1"?>
<!-- Generator: Adobe Illustrator 18.0.0, SVG Export Plug-In . SVG Version: 6.00 Build 0)  -->
<!DOCTYPE svg PUBLIC "-//W3C//DTD SVG 1.1//EN" "http://www.w3.org/Graphics/SVG/1.1/DTD/svg11.dtd">
<svg version="1.1" id="&#x56FE;&#x5C42;_1" xmlns="http://www.w3.org/2000/svg" xmlns:xlink="http://www.w3.org/1999/xlink" x="0px"
	 y="0px" viewBox="0 0 24 24" enable-background="new 0 0 24 24" xml:space="preserve">
<g>
	<polygon fill="#FFFFFF" points="11,8 12,8 12,17 11,17 11,19 15,19 15,17 14,17 14,8 15,8 15,6 11,6 	"/>
	<polygon fill="#FFFFFF" points="22,8 22,6 16,6 16,19 18,19 18,14 21,14 21,12 18,12 18,8 	"/>
	<path fill="#FFFFFF" d="M6,8c1.103,0,2,0.897,2,2h2c0-2.206-1.794-4-4-4s-4,1.794-4,4v5c0,2.206,1.794,4,4,4
		c0.732,0,1.409-0.212,2-0.556V19h2v-7H6v2h2v1c0,1.103-0.897,2-2,2s-2-0.897-2-2v-5C4,8.897,4.897,8,6,8z"/>
</g>
</svg>
