<?xml version="1.0" encoding="iso-8859-1"?>
<!-- Generator: Adobe Illustrator 18.0.0, SVG Export Plug-In . SVG Version: 6.00 Build 0)  -->
<!DOCTYPE svg PUBLIC "-//W3C//DTD SVG 1.1//EN" "http://www.w3.org/Graphics/SVG/1.1/DTD/svg11.dtd">
<svg version="1.1" id="&#x56FE;&#x5C42;_1" xmlns="http://www.w3.org/2000/svg" xmlns:xlink="http://www.w3.org/1999/xlink" x="0px"
	 y="0px" viewBox="0 0 24 24" enable-background="new 0 0 24 24" xml:space="preserve">
<g>
	<g>
		<path fill="#FFFFFF" d="M17,16h-2c-0.552,0-1-0.448-1-1v-2h-4v2c0,0.552-0.448,1-1,1H7c-0.552,0-1-0.448-1-1v-2H4v5
			c0,1.105,0.895,2,2,2h12c1.105,0,2-0.895,2-2v-5h-2v2C18,15.552,17.552,16,17,16z"/>
	</g>
	<g>
		<path fill="#FFFFFF" d="M18,7h-3V4.5C15,4.224,14.776,4,14.5,4h-5C9.224,4,9,4.224,9,4.5V7H6C4.895,7,4,7.895,4,9v3h3v2.5
			C7,14.776,7.224,15,7.5,15h1C8.776,15,9,14.776,9,14.5V12h6v2.5c0,0.276,0.224,0.5,0.5,0.5h1c0.276,0,0.5-0.224,0.5-0.5V12h3V9
			C20,7.895,19.105,7,18,7z M10,5h4v2h-4V5z"/>
	</g>
</g>
</svg>
