<?xml version="1.0" encoding="iso-8859-1"?>
<!-- Generator: Adobe Illustrator 18.0.0, SVG Export Plug-In . SVG Version: 6.00 Build 0)  -->
<!DOCTYPE svg PUBLIC "-//W3C//DTD SVG 1.1//EN" "http://www.w3.org/Graphics/SVG/1.1/DTD/svg11.dtd">
<svg version="1.1" id="&#x56FE;&#x5C42;_1" xmlns="http://www.w3.org/2000/svg" xmlns:xlink="http://www.w3.org/1999/xlink" x="0px"
	 y="0px" viewBox="0 0 16 16" style="enable-background:new 0 0 16 16;" xml:space="preserve">
<g>
	<path style="fill:#A2A2A2;" d="M7.692,2.076C7.506,1.998,7.29,2.041,7.147,2.184L4.293,5.038H1.5c-0.276,0-0.5,0.224-0.5,0.5v5
		c0,0.276,0.224,0.5,0.5,0.5h2.793l2.854,2.854c0.096,0.096,0.224,0.146,0.354,0.146c0.064,0,0.13-0.013,0.191-0.038
		C7.878,13.922,8,13.74,8,13.538v-11C8,2.336,7.878,2.153,7.692,2.076z"/>
	<path style="fill:#A2A2A2;" d="M13.485,7.505h-1.492V6.036c0-0.276-0.224-0.5-0.5-0.5s-0.5,0.224-0.5,0.5v1.469H9.5
		c-0.276,0-0.5,0.224-0.5,0.5s0.224,0.5,0.5,0.5h1.492v1.532c0,0.276,0.224,0.5,0.5,0.5s0.5-0.224,0.5-0.5V8.505h1.492
		c0.276,0,0.5-0.224,0.5-0.5S13.761,7.505,13.485,7.505z"/>
</g>
</svg>
