<?xml version="1.0" encoding="iso-8859-1"?>
<!-- Generator: Adobe Illustrator 18.0.0, SVG Export Plug-In . SVG Version: 6.00 Build 0)  -->
<!DOCTYPE svg PUBLIC "-//W3C//DTD SVG 1.1//EN" "http://www.w3.org/Graphics/SVG/1.1/DTD/svg11.dtd">
<svg version="1.1" id="&#x56FE;&#x5C42;_1" xmlns="http://www.w3.org/2000/svg" xmlns:xlink="http://www.w3.org/1999/xlink" x="0px"
	 y="0px" viewBox="0 0 16 16" style="enable-background:new 0 0 16 16;" xml:space="preserve">
<g>
	<path style="fill:#A2A2A2;" d="M10.004,5.029c-1.655,0-3.001,1.347-3.001,3.001s1.346,3,3.001,3s3.001-1.346,3.001-3
		S11.659,5.029,10.004,5.029z M10.004,10.029c-1.103,0-1.999-0.896-1.999-1.999s0.896-1.999,1.999-1.999s1.999,0.896,1.999,1.999
		S11.107,10.029,10.004,10.029z"/>
	<path style="fill:#A2A2A2;" d="M9.686,7.006C9.49,6.811,9.172,6.811,8.977,7.007c-0.196,0.196-0.195,0.513,0,0.709l1.346,1.343
		c0.098,0.098,0.227,0.146,0.354,0.146s0.257-0.049,0.354-0.146c0.196-0.196,0.195-0.514,0-0.709L9.686,7.006z"/>
	<path style="fill:#A2A2A2;" d="M6.005,8.03c0-1.337,0.666-2.58,1.781-3.326c0.139-0.093,0.222-0.249,0.222-0.416V2.538
		c0-0.202-0.122-0.385-0.309-0.462C7.514,1.998,7.298,2.041,7.154,2.184L4.301,5.038H1.508c-0.276,0-0.5,0.224-0.5,0.5v5
		c0,0.276,0.224,0.5,0.5,0.5h2.793l2.854,2.854c0.096,0.096,0.224,0.146,0.354,0.146c0.064,0,0.13-0.013,0.191-0.038
		c0.187-0.077,0.309-0.26,0.309-0.462v-1.767c0-0.167-0.083-0.323-0.223-0.416C6.671,10.61,6.005,9.367,6.005,8.03z"/>
</g>
</svg>
