<?xml version="1.0" encoding="utf-8"?>
<!-- Generator: Adobe Illustrator 18.0.0, SVG Export Plug-In . SVG Version: 6.00 Build 0)  -->
<!DOCTYPE svg PUBLIC "-//W3C//DTD SVG 1.1//EN" "http://www.w3.org/Graphics/SVG/1.1/DTD/svg11.dtd">
<svg version="1.1" id="图层_1" xmlns="http://www.w3.org/2000/svg" xmlns:xlink="http://www.w3.org/1999/xlink" x="0px" y="0px"
	 viewBox="0 0 20 20" enable-background="new 0 0 20 20" xml:space="preserve">
<g>
	<path fill="#505050" d="M10.9,7.6h-4l2-2c0.2-0.2,0.2-0.5,0-0.7s-0.5-0.2-0.7,0L5.4,7.7c-0.2,0.2-0.2,0.5,0,0.7l2.9,2.9
		c0.1,0.1,0.2,0.1,0.4,0.1s0.3,0,0.4-0.1c0.2-0.2,0.2-0.5,0-0.7l-2-2l4,0c0.1,0,3,0.3,3,2.9c0,2.6-2.4,2.7-2.7,2.7
		c-0.3,0-0.5,0.2-0.5,0.5c0,0.3,0.2,0.5,0.5,0.5c0,0,0,0,0,0c1.3,0,3.7-0.8,3.7-3.7C14.8,8.7,12.3,7.7,10.9,7.6z"/>
</g>
</svg>
