<?xml version="1.0" encoding="utf-8"?>
<!-- Generator: Adobe Illustrator 18.0.0, SVG Export Plug-In . SVG Version: 6.00 Build 0)  -->
<!DOCTYPE svg PUBLIC "-//W3C//DTD SVG 1.1//EN" "http://www.w3.org/Graphics/SVG/1.1/DTD/svg11.dtd">
<svg version="1.1" id="图层_1" xmlns="http://www.w3.org/2000/svg" xmlns:xlink="http://www.w3.org/1999/xlink" x="0px" y="0px"
	 viewBox="0 0 20 20" enable-background="new 0 0 20 20" xml:space="preserve">
<rect x="0" y="0" opacity="0" fill="#FFFFFF" width="20" height="20"/>
<g>
	<path fill="#505050" d="M13.2,14.2H6.8c-0.6,0-1-0.4-1-1V6.8c0-0.6,0.4-1,1-1h6.4c0.6,0,1,0.4,1,1v6.4
		C14.2,13.7,13.8,14.2,13.2,14.2z"/>
	<path fill="#505050" d="M7.3,6.4L5.8,5l1.2-1.2c0.2-0.2,0-0.4-0.2-0.4H3.6c-0.1,0-0.3,0.1-0.3,0.3v3.3c0,0.2,0.3,0.3,0.4,0.2L5,5.8
		l1.5,1.5c0.2,0.2,0.4,0.2,0.6,0l0.2-0.2C7.5,6.9,7.5,6.6,7.3,6.4z"/>
	<path fill="#505050" d="M13.6,7.3l1.5-1.5L16.3,7c0.2,0.2,0.4,0,0.4-0.2V3.5c0-0.1-0.1-0.3-0.3-0.3h-3.3c-0.2,0-0.3,0.3-0.2,0.4
		L14.3,5l-1.5,1.5c-0.2,0.2-0.2,0.4,0,0.6L13,7.3C13.1,7.5,13.4,7.5,13.6,7.3z"/>
	<path fill="#505050" d="M12.7,13.5l1.5,1.5L13,16.2c-0.2,0.2,0,0.4,0.2,0.4h3.3c0.1,0,0.3-0.1,0.3-0.3v-3.3c0-0.2-0.3-0.3-0.4-0.2
		l-1.3,1.3l-1.5-1.5c-0.2-0.2-0.4-0.2-0.6,0l-0.2,0.2C12.6,13.1,12.6,13.3,12.7,13.5z"/>
	<path fill="#505050" d="M6.5,12.7L5,14.2l-1.2-1.2c-0.2-0.2-0.4,0-0.4,0.2v3.3c0,0.1,0.1,0.3,0.3,0.3h3.3c0.2,0,0.3-0.3,0.2-0.4
		L5.8,15l1.5-1.5c0.2-0.2,0.2-0.4,0-0.6l-0.2-0.2C6.9,12.5,6.7,12.5,6.5,12.7z"/>
</g>
</svg>
