<?xml version="1.0" encoding="utf-8"?>
<!-- Generator: Adobe Illustrator 18.0.0, SVG Export Plug-In . SVG Version: 6.00 Build 0)  -->
<!DOCTYPE svg PUBLIC "-//W3C//DTD SVG 1.1//EN" "http://www.w3.org/Graphics/SVG/1.1/DTD/svg11.dtd">
<svg version="1.1" id="图层_1" xmlns="http://www.w3.org/2000/svg" xmlns:xlink="http://www.w3.org/1999/xlink" x="0px" y="0px"
	 viewBox="0 0 20 20" enable-background="new 0 0 20 20" xml:space="preserve">
<rect opacity="0" fill="#FFFFFF" width="20" height="20"/>
<rect opacity="0" fill="#FFFFFF" width="20" height="20"/>
<g>
	<path fill="#505050" d="M4.1,2.6L14,9.4c0.4,0.3,0.4,0.8,0,1.1l-9.8,6.7c-0.4,0.3-1,0-1-0.5V3.2C3.2,2.7,3.7,2.4,4.1,2.6z"/>
	<path fill="#505050" d="M14.3,16.8V3.2c0-0.3,0.3-0.6,0.6-0.6h1.2c0.3,0,0.6,0.3,0.6,0.6v13.6c0,0.3-0.3,0.6-0.6,0.6h-1.2
		C14.6,17.4,14.3,17.1,14.3,16.8z"/>
</g>
</svg>
