<?xml version="1.0" encoding="utf-8"?>
<!-- Generator: Adobe Illustrator 18.0.0, SVG Export Plug-In . SVG Version: 6.00 Build 0)  -->
<!DOCTYPE svg PUBLIC "-//W3C//DTD SVG 1.1//EN" "http://www.w3.org/Graphics/SVG/1.1/DTD/svg11.dtd">
<svg version="1.1" id="图层_1" xmlns="http://www.w3.org/2000/svg" xmlns:xlink="http://www.w3.org/1999/xlink" x="0px" y="0px"
	 viewBox="0 0 20 20" enable-background="new 0 0 20 20" xml:space="preserve">
<rect x="0" y="0" opacity="0" fill="#FFFFFF" width="20" height="20"/>
<g>
	<path fill="#505050" d="M16,16.3H4.5C4.2,16.3,4,16,4,15.7v-1.3c0-0.3,0.2-0.5,0.5-0.5H16c0.3,0,0.5,0.2,0.5,0.5v1.3
		C16.6,16,16.3,16.3,16,16.3z"/>
	<path fill="#505050" d="M16.1,12.3H4.4c-0.3,0-0.5-0.4-0.3-0.7l5.9-7.8c0.2-0.2,0.5-0.2,0.7,0l5.8,7.8
		C16.6,11.9,16.5,12.3,16.1,12.3z"/>
</g>
</svg>
