<?xml version="1.0" encoding="utf-8"?>
<!-- Generator: Adobe Illustrator 18.0.0, SVG Export Plug-In . SVG Version: 6.00 Build 0)  -->
<!DOCTYPE svg PUBLIC "-//W3C//DTD SVG 1.1//EN" "http://www.w3.org/Graphics/SVG/1.1/DTD/svg11.dtd">
<svg version="1.1" id="图层_1" xmlns="http://www.w3.org/2000/svg" xmlns:xlink="http://www.w3.org/1999/xlink" x="0px" y="0px"
	 viewBox="0 0 20 20" enable-background="new 0 0 20 20" xml:space="preserve">
<rect x="0" y="0" opacity="0" fill="#FFFFFF" width="20" height="20"/>
<g>
	<path fill="#505050" d="M12.5,13.3H7.4c-0.4,0-0.8-0.4-0.8-0.8V7.4C6.6,7,7,6.6,7.4,6.6h5.1c0.4,0,0.8,0.4,0.8,0.8v5.1
		C13.3,13,13,13.3,12.5,13.3z"/>
	<path fill="#505050" d="M3.4,4.3l1.5,1.5L3.7,7c-0.2,0.2,0,0.4,0.2,0.4h3.3c0.1,0,0.3-0.1,0.3-0.3V3.9c0-0.2-0.3-0.3-0.4-0.2L5.7,5
		L4.2,3.5c-0.2-0.2-0.4-0.2-0.6,0L3.4,3.7C3.2,3.9,3.2,4.1,3.4,4.3z"/>
	<path fill="#505050" d="M15.7,3.5l-1.5,1.5l-1.2-1.2c-0.2-0.2-0.4,0-0.4,0.2v3.3c0,0.1,0.1,0.3,0.3,0.3h3.3c0.2,0,0.3-0.3,0.2-0.4
		L15,5.8l1.5-1.5c0.2-0.2,0.2-0.4,0-0.6l-0.2-0.2C16.1,3.3,15.8,3.3,15.7,3.5z"/>
	<path fill="#505050" d="M16.5,15.6L15,14.2l1.2-1.2c0.2-0.2,0-0.4-0.2-0.4h-3.3c-0.1,0-0.3,0.1-0.3,0.3v3.3c0,0.2,0.3,0.3,0.4,0.2
		l1.3-1.3l1.5,1.5c0.2,0.2,0.4,0.2,0.6,0l0.2-0.2C16.7,16.1,16.7,15.8,16.5,15.6z"/>
	<path fill="#505050" d="M4.3,16.5L5.7,15L7,16.2c0.2,0.2,0.4,0,0.4-0.2v-3.3c0-0.1-0.1-0.3-0.3-0.3H3.8c-0.2,0-0.3,0.3-0.2,0.4
		l1.3,1.3l-1.5,1.5c-0.2,0.2-0.2,0.4,0,0.6l0.2,0.2C3.8,16.6,4.1,16.6,4.3,16.5z"/>
</g>
</svg>
