<?xml version="1.0" encoding="iso-8859-1"?>
<!-- Generator: Adobe Illustrator 18.0.0, SVG Export Plug-In . SVG Version: 6.00 Build 0)  -->
<!DOCTYPE svg PUBLIC "-//W3C//DTD SVG 1.1//EN" "http://www.w3.org/Graphics/SVG/1.1/DTD/svg11.dtd">
<svg version="1.1" id="&#x56FE;&#x5C42;_1" xmlns="http://www.w3.org/2000/svg" xmlns:xlink="http://www.w3.org/1999/xlink" x="0px"
	 y="0px" viewBox="0 0 30 20" enable-background="new 0 0 30 20" xml:space="preserve">
<g>
	<path opacity="0.1" fill="#FFFFFF" d="M25.667,19.5H4.333c-2.108,0-3.833-1.725-3.833-3.833V4.333C0.5,2.225,2.225,0.5,4.333,0.5
		h21.334c2.108,0,3.833,1.725,3.833,3.833v11.334C29.5,17.775,27.775,19.5,25.667,19.5z"/>
	<g>
		<path fill="none" stroke="#CBCBCB" stroke-miterlimit="10" d="M25.5,19.5h-21c-2.209,0-4-1.791-4-4v-11c0-2.209,1.791-4,4-4h21
			c2.209,0,4,1.791,4,4v11C29.5,17.709,27.709,19.5,25.5,19.5z"/>
	</g>
</g>
<g>
	<path d="M8,3H7H6v6h1V7h1c1.104,0,2-0.895,2-2v0C10,3.895,9.105,3,8,3z M8,6H7V4h1c0.552,0,1,0.448,1,1S8.552,6,8,6z"/>
	<path d="M10.472,5.361c0.493-0.244,1.061-0.365,1.706-0.365c1.194,0,1.791,0.496,1.791,1.489v2.525L13.031,9V8.394
		c0,0-0.359,0.708-1.471,0.708c-0.48,0-0.863-0.103-1.146-0.308C10.13,8.587,9.988,8.31,9.988,7.96c0-0.733,0.547-1.159,1.643-1.28
		l1.4-0.172c0-0.641-0.266-0.745-0.934-0.745c-0.594,0-1.136,0.159-1.625,0.475V5.361z M11.94,7.166
		c-0.406,0.043-0.686,0.123-0.84,0.241C10.948,7.525,10.87,7.69,10.87,7.903c0,0.187,0.084,0.34,0.251,0.457
		c0.167,0.118,0.388,0.177,0.663,0.177c0.382,0,0.697-0.106,0.945-0.319c0.247-0.213,0.303-0.489,0.303-0.811V7.032L11.94,7.166z"/>
	<path d="M19.02,8.775c0,1.49-0.776,2.235-2.328,2.235c-0.536,0-1.003-0.094-1.398-0.28l0.031-0.928
		c0.481,0.25,0.749,0.396,1.191,0.396c1.05,0,1.543-0.275,1.543-1.304l0.021-0.239c-0.475,0.423-0.737,0.508-1.31,0.552
		c-0.54,0.042-0.976-0.181-1.301-0.542S14.98,7.825,14.98,7.228c0-0.687,0.154-1.256,0.539-1.633
		c0.268-0.263,0.668-0.611,1.438-0.602c0.559,0.006,0.823,0.188,1.105,0.413l0.009-0.313l0.948-0.006V8.775z M18.07,6.688
		c0.003-0.31-0.109-0.578-0.336-0.801c-0.227-0.223-0.906-0.497-1.625,0.123c-0.278,0.24-0.348,0.676-0.348,1.174
		c0,0.427,0.078,0.805,0.336,1.037c0.621,0.56,1.384,0.24,1.621-0.012c0.237-0.252,0.354-0.572,0.352-0.961V6.688z"/>
	<path d="M24,7.313h-3.138c0,0-0.002,1,1.326,1.021c0.503,0.008,1.066-0.17,1.484-0.443l0.008,0.741
		c-0.394,0.237-0.917,0.355-1.569,0.355c-0.649,0-1.155-0.175-1.518-0.524c-0.364-0.349-0.545-0.834-0.545-1.455
		c0-0.583,0.2-1.065,0.598-1.445c0.398-0.379,0.894-0.569,1.486-0.569C23.5,4.994,24,6.245,24,6.821V7.313z M23.205,6.621
		C23.202,6.277,22.766,5.7,22.109,5.7c-0.547,0-1.248,0.472-1.248,0.921H23.205z"/>
	<path d="M7.391,11H6.747H6.725H6v6h0.725h0.022h0.644C8.856,17,10,15.755,10,14.29v-0.666C10,12.158,8.856,11,7.391,11z M9,14.29
		C9,15.233,8.278,16,7.391,16H7v-4h0.391C8.293,12,9,12.713,9,13.624V14.29z"/>
	<path d="M20.281,13l-1.193,4H18.35l-0.796-2.807c-0.034-0.121-0.115-0.157-0.162-0.007L16.53,17h-0.715l-1.201-4h0.87l0.75,2.738
		C16.258,15.827,17,13,17,13h0.922c0,0,0.746,2.907,0.784,2.767L19.5,13H20.281z"/>
	<path d="M24,17h-0.766v-2.104c0-0.545-0.126-1.036-0.659-1.036c-0.435,0-0.686,0.543-0.686,0.893V17H21v-3.941h0.89l0.013,0.653
		c0.121-0.29,0.395-0.608,0.904-0.608c0.39,0,0.686,0.138,0.888,0.415C23.898,13.796,24,14.2,24,14.729V17z"/>
	<path d="M12.49,13c-1.099,0-1.99,0.895-1.99,2c0,1.105,0.891,2,1.99,2s1.99-0.895,1.99-2C14.48,13.895,13.589,13,12.49,13z
		 M12.49,16.262c-0.689,0-1.25-0.566-1.25-1.262s0.561-1.262,1.25-1.262c0.689,0,1.25,0.566,1.25,1.262S13.179,16.262,12.49,16.262z
		"/>
</g>
</svg>
