<?xml version="1.0" encoding="iso-8859-1"?>
<!-- Generator: Adobe Illustrator 18.0.0, SVG Export Plug-In . SVG Version: 6.00 Build 0)  -->
<!DOCTYPE svg PUBLIC "-//W3C//DTD SVG 1.1//EN" "http://www.w3.org/Graphics/SVG/1.1/DTD/svg11.dtd">
<svg version="1.1" id="&#x56FE;&#x5C42;_1" xmlns="http://www.w3.org/2000/svg" xmlns:xlink="http://www.w3.org/1999/xlink" x="0px"
	 y="0px" viewBox="0 0 20 20" enable-background="new 0 0 20 20" xml:space="preserve">
<g>
	<path opacity="0.1" fill="#FFFFFF" d="M15.7,19.5H4.3c-2.09,0-3.8-1.71-3.8-3.8V4.3c0-2.09,1.71-3.8,3.8-3.8h11.4
		c2.09,0,3.8,1.71,3.8,3.8v11.4C19.5,17.79,17.79,19.5,15.7,19.5z"/>
	<path fill="none" stroke="#CBCBCB" stroke-miterlimit="10" d="M15.5,19.5h-11c-2.209,0-4-1.791-4-4v-11c0-2.209,1.791-4,4-4h11
		c2.209,0,4,1.791,4,4v11C19.5,17.709,17.709,19.5,15.5,19.5z"/>
	<g>
		<path d="M10,6H6v3h3v1H6v4H5V5h5V6z"/>
	</g>
	<path d="M11.001,12.394c0.586,0.461,1.246,0.691,1.981,0.691c0.589,0,1.054-0.147,1.398-0.442c0.344-0.294,0.517-0.688,0.517-1.183
		c0-1.102-0.774-1.653-2.323-1.653h-0.712V8.897h0.679c1.372,0,2.058-0.517,2.058-1.552c0-0.956-0.524-1.433-1.572-1.433
		c-0.6,0-1.165,0.206-1.694,0.618v-1.04c0.56-0.33,1.213-0.495,1.959-0.495c0.728,0,1.313,0.194,1.755,0.582
		c0.441,0.387,0.662,0.891,0.662,1.509c0,1.139-0.57,1.872-1.71,2.198v0.022c0.618,0.067,1.107,0.289,1.465,0.666
		c0.359,0.376,0.539,0.846,0.539,1.408c0,0.783-0.277,1.415-0.831,1.894s-1.29,0.72-2.21,0.72c-0.81,0-1.462-0.154-1.959-0.461
		V12.394z"/>
</g>
</svg>
