<?xml version="1.0" encoding="iso-8859-1"?>
<!-- Generator: Adobe Illustrator 18.0.0, SVG Export Plug-In . SVG Version: 6.00 Build 0)  -->
<!DOCTYPE svg PUBLIC "-//W3C//DTD SVG 1.1//EN" "http://www.w3.org/Graphics/SVG/1.1/DTD/svg11.dtd">
<svg version="1.1" id="&#x56FE;&#x5C42;_1" xmlns="http://www.w3.org/2000/svg" xmlns:xlink="http://www.w3.org/1999/xlink" x="0px"
	 y="0px" viewBox="0 0 24 24" enable-background="new 0 0 24 24" xml:space="preserve">
<g>
	<path id="gear-icon_1_" fill="#B5B5B6" d="M22,13.346v-2.692l-1.456-0.518c-0.554-0.199-1.001-0.622-1.226-1.166V8.97
		c-0.226-0.546-0.211-1.161,0.042-1.695l0.663-1.394l-1.904-1.904l-1.394,0.662c-0.534,0.253-1.151,0.269-1.695,0.043h-0.001
		c-0.544-0.226-0.968-0.671-1.165-1.227L13.346,2h-2.694l-0.517,1.455C9.938,4.01,9.515,4.457,8.971,4.682H8.969
		c-0.545,0.226-1.16,0.21-1.694-0.043L5.881,3.977L3.976,5.881l0.663,1.394C4.892,7.809,4.908,8.424,4.682,8.97v0.001
		C4.456,9.515,4.01,9.938,3.455,10.136L2,10.654v2.692l1.455,0.518c0.555,0.198,1.001,0.621,1.227,1.164v0.001
		c0.226,0.546,0.211,1.161-0.043,1.695l-0.663,1.394l1.905,1.904l1.394-0.662c0.533-0.253,1.149-0.269,1.694-0.043h0.002
		c0.544,0.225,0.967,0.672,1.165,1.227L10.652,22h2.694l0.514-1.445c0.2-0.561,0.628-1.012,1.176-1.24l0,0
		c0.541-0.225,1.151-0.209,1.679,0.042l1.404,0.666l1.904-1.904l-0.663-1.395c-0.253-0.533-0.268-1.148-0.043-1.694V15.03
		c0.226-0.544,0.673-0.968,1.228-1.166L22,13.346z M12,16.286c-2.367,0-4.286-1.918-4.286-4.286c0-2.367,1.918-4.286,4.286-4.286
		c2.366,0,4.286,1.918,4.286,4.286C16.286,14.368,14.366,16.286,12,16.286z"/>
</g>
</svg>
