<?xml version="1.0" encoding="iso-8859-1"?>
<!-- Generator: Adobe Illustrator 18.0.0, SVG Export Plug-In . SVG Version: 6.00 Build 0)  -->
<!DOCTYPE svg PUBLIC "-//W3C//DTD SVG 1.1//EN" "http://www.w3.org/Graphics/SVG/1.1/DTD/svg11.dtd">
<svg version="1.1" id="&#x56FE;&#x5C42;_1" xmlns="http://www.w3.org/2000/svg" xmlns:xlink="http://www.w3.org/1999/xlink" x="0px"
	 y="0px" viewBox="0 0 64 64" enable-background="new 0 0 64 64" xml:space="preserve">
<g>
	<g>
		<path fill="#B5B5B6" d="M38.488,49.392L36,48.504V42H17c-0.552,0-1-0.448-1-1V20c0-0.552,0.448-1,1-1h27c0.552,0,1,0.448,1,1
			v13.42L45.504,32h6.967l0.888,2.547L54,34.223V14c0-1.657-1.343-3-3-3H10c-1.657,0-3,1.343-3,3v33c0,1.657,1.343,3,3,3h28.195
			L38.488,49.392z M50.611,12.843c1.004,0,1.817,0.814,1.817,1.817c0,1.004-0.814,1.817-1.817,1.817
			c-1.004,0-1.817-0.814-1.817-1.817C48.794,13.657,49.608,12.843,50.611,12.843z"/>
		<circle fill="#B5B5B6" cx="48.989" cy="45.042" r="2"/>
	</g>
	<g id="gear-icon_2_">
		<path fill="#B5B5B6" d="M58.992,46.388v-2.692l-1.457-0.518c-0.554-0.199-1.002-0.622-1.227-1.166l0-0.001
			c-0.226-0.546-0.211-1.161,0.042-1.695l0.663-1.394l-1.904-1.904l-1.394,0.662c-0.534,0.253-1.151,0.269-1.695,0.043h-0.001
			c-0.544-0.226-0.968-0.712-1.165-1.268l-0.518-1.495h-2.694l-0.517,1.495c-0.198,0.555-0.621,1.022-1.165,1.247l-0.002,0.01
			c-0.545,0.226-1.16,0.215-1.694-0.038l-1.394-0.66l-1.905,1.905l0.663,1.395c0.253,0.534,0.269,1.149,0.043,1.695v0.001
			c-0.226,0.544-0.671,0.967-1.226,1.166l-1.453,0.518v2.692l1.453,0.518c0.555,0.198,1,0.621,1.226,1.164l0,0.001
			c0.226,0.546,0.211,1.161-0.043,1.695l-0.663,1.394l1.905,1.904l1.394-0.662c0.533-0.253,1.149-0.269,1.694-0.043h0.002
			c0.544,0.225,0.967,0.632,1.165,1.187l0.517,1.415h2.694l0.514-1.405c0.2-0.561,0.628-0.991,1.176-1.22l0,0
			c0.541-0.225,1.151-0.199,1.679,0.052l1.404,0.672l1.904-1.902l-0.663-1.394c-0.253-0.533-0.268-1.148-0.043-1.693v-0.001
			c0.226-0.544,0.675-0.967,1.23-1.166L58.992,46.388z M48.989,49.328c-2.367,0-4.286-1.918-4.286-4.286
			c0-2.367,1.918-4.286,4.286-4.286c2.366,0,4.286,1.918,4.286,4.286C53.275,47.41,51.355,49.328,48.989,49.328z"/>
	</g>
	<path fill="#B5B5B6" d="M37.346,38.297L42,33.644V22H19v17h18.68L37.346,38.297z M39.016,23.5c0.828,0,1.5,0.672,1.5,1.5
		c0,0.828-0.672,1.5-1.5,1.5c-0.828,0-1.5-0.672-1.5-1.5C37.516,24.172,38.187,23.5,39.016,23.5z"/>
</g>
</svg>
