<?xml version="1.0" encoding="utf-8"?>
<!-- Generator: Adobe Illustrator 18.0.0, SVG Export Plug-In . SVG Version: 6.00 Build 0)  -->
<!DOCTYPE svg PUBLIC "-//W3C//DTD SVG 1.1//EN" "http://www.w3.org/Graphics/SVG/1.1/DTD/svg11.dtd">
<svg version="1.1" id="图层_1" xmlns="http://www.w3.org/2000/svg" xmlns:xlink="http://www.w3.org/1999/xlink" x="0px" y="0px"
	 viewBox="0 0 20 20" enable-background="new 0 0 20 20" xml:space="preserve">
<rect y="0" opacity="0" fill="#FFFFFF" width="20" height="20"/>
<g>
	<path fill="#505050" d="M11.3,10c0,0.7-0.6,1.3-1.3,1.3c-0.7,0-1.3-0.6-1.3-1.3S9.3,8.7,10,8.7C10.7,8.7,11.3,9.3,11.3,10z"/>
	<path fill="#505050" d="M11.3,14.9c0,0.7-0.6,1.3-1.3,1.3c-0.7,0-1.3-0.6-1.3-1.3c0-0.7,0.6-1.3,1.3-1.3
		C10.7,13.6,11.3,14.2,11.3,14.9z"/>
	
		<line fill="none" stroke="#404040" stroke-linecap="round" stroke-linejoin="round" stroke-miterlimit="10" x1="3.1" y1="3.1" x2="3.1" y2="16.8"/>
	
		<line fill="none" stroke="#404040" stroke-linecap="round" stroke-linejoin="round" stroke-miterlimit="10" x1="16.9" y1="3.1" x2="16.9" y2="16.8"/>
</g>
</svg>
