<?xml version="1.0" encoding="iso-8859-1"?>
<!-- Generator: Adobe Illustrator 18.0.0, SVG Export Plug-In . SVG Version: 6.00 Build 0)  -->
<!DOCTYPE svg PUBLIC "-//W3C//DTD SVG 1.1//EN" "http://www.w3.org/Graphics/SVG/1.1/DTD/svg11.dtd">
<svg version="1.1" id="&#x56FE;&#x5C42;_1" xmlns="http://www.w3.org/2000/svg" xmlns:xlink="http://www.w3.org/1999/xlink" x="0px"
	 y="0px" viewBox="0 0 30 20" enable-background="new 0 0 30 20" xml:space="preserve">
<g>
	<path opacity="0.1" fill="#FFFFFF" d="M25.667,19.5H4.333c-2.108,0-3.833-1.725-3.833-3.833V4.333C0.5,2.225,2.225,0.5,4.333,0.5
		h21.334c2.108,0,3.833,1.725,3.833,3.833v11.334C29.5,17.775,27.775,19.5,25.667,19.5z"/>
	<g>
		<path fill="none" stroke="#CBCBCB" stroke-miterlimit="10" d="M25.5,19.5h-21c-2.209,0-4-1.791-4-4v-11c0-2.209,1.791-4,4-4h21
			c2.209,0,4,1.791,4,4v11C29.5,17.709,27.709,19.5,25.5,19.5z"/>
	</g>
</g>
<path d="M9,12.383V15H8V8h1v0.894c0,0,0.593-0.932,1.723-0.932c0.639,0,1.21,0.222,1.573,0.652c0.362,0.432,0.579,1.013,0.579,1.738
	c0,0.801-0.189,1.446-0.599,1.932c-0.412,0.487-1.096,0.81-1.792,0.81C9.57,13.094,9,12.383,9,12.383z M9,10.917
	c0,0.392,0.193,0.722,0.455,0.991c0.262,0.268,0.621,0.402,1.016,0.402c0.47,0,0.853-0.174,1.118-0.522
	c0.265-0.348,0.405-0.83,0.405-1.445c0-0.52-0.12-0.926-0.367-1.22c-0.247-0.295-0.583-0.442-1.01-0.442
	c-0.436,0-0.856,0.15-1.136,0.448S9,9.81,9,10.277V10.917z"/>
<path d="M14.291,8.51c0.511-0.289,1.1-0.434,1.769-0.434c1.238,0,1.857,0.59,1.857,1.769v2.999h-0.901v-0.72h-0.023
	c-0.356,0.553-0.88,0.83-1.574,0.83c-0.499,0-0.894-0.122-1.189-0.366c-0.294-0.244-0.441-0.574-0.441-0.99
	c0-0.87,0.568-1.377,1.704-1.52l1.523-0.194c0-0.761-0.346-1.141-1.04-1.141c-0.616,0-1.177,0.188-1.685,0.564V8.51z M15.814,10.654
	c-0.421,0.051-0.711,0.146-0.87,0.286c-0.16,0.141-0.24,0.337-0.24,0.59c0,0.222,0.086,0.403,0.26,0.543s0.402,0.211,0.687,0.211
	c0.396,0,0.722-0.126,0.98-0.379c0.257-0.253,0.385-0.57,0.385-0.952v-0.446L15.814,10.654z"/>
<path d="M22.756,12.791c-0.404,0.224-0.89,0.337-1.46,0.337c-0.763,0-1.377-0.228-1.842-0.682c-0.465-0.455-0.697-1.044-0.697-1.768
	c0-0.804,0.251-1.451,0.751-1.943c0.502-0.491,1.172-0.737,2.011-0.737c0.484,0,0.897,0.08,1.24,0.239v0.86
	c-0.372-0.254-0.785-0.381-1.24-0.381c-0.534,0-0.969,0.172-1.305,0.516c-0.335,0.345-0.503,0.803-0.503,1.376
	c0,0.565,0.158,1.006,0.474,1.325c0.317,0.319,0.744,0.479,1.281,0.479c0.455,0,0.885-0.139,1.288-0.417V12.791z"/>
<path d="M28.048,10.766h-3.71c0.016,0.527,0.171,0.934,0.465,1.221c0.294,0.288,0.705,0.431,1.232,0.431
	c0.594,0,1.139-0.177,1.634-0.531v0.781c-0.467,0.306-1.085,0.46-1.855,0.46c-0.767,0-1.365-0.226-1.795-0.679
	c-0.43-0.453-0.645-1.08-0.645-1.884c0-0.756,0.236-1.38,0.707-1.871c0.472-0.491,1.057-0.737,1.757-0.737
	c0.693,0,1.235,0.207,1.625,0.623c0.39,0.414,0.585,0.996,0.585,1.743V10.766z M27.109,10.065c-0.003-0.446-0.117-0.792-0.34-1.036
	c-0.223-0.244-0.539-0.366-0.944-0.366c-0.374,0-0.698,0.129-0.97,0.388c-0.274,0.259-0.446,0.596-0.516,1.014H27.109z"/>
<g>
	<path d="M4.233,13.171c-0.349,0-0.762-0.044-1.229-0.132c-0.46-0.087-0.799-0.194-1.006-0.321l0.031-1.163
		c0.264,0.177,0.596,0.327,0.991,0.446c0.466,0.142,0.916,0.214,1.339,0.214c1.262,0,1.992-0.177,1.992-1.083
		c0-0.247-0.075-0.472-0.221-0.669c-0.141-0.19-0.338-0.36-0.584-0.506c-0.241-0.142-0.679-0.354-1.34-0.649
		C3.321,8.911,2.733,8.54,2.457,8.205C2.185,7.877,2.047,7.496,2.047,7.073c0-0.646,0.281-1.145,0.86-1.525
		c0.582-0.383,1.3-0.577,2.192-0.577C5.745,4.972,7,5.116,7,5.413v0.919c0-0.258-1.104-0.528-1.965-0.528
		c-0.564,0-1.018,0.109-1.377,0.325C3.294,6.346,3.077,6.565,3.077,6.984c0,0.355,0.135,0.649,0.396,0.873
		C3.721,8.07,4.241,8.35,5.059,8.714c0.868,0.374,1.482,0.751,1.823,1.12c0.334,0.361,0.505,0.771,0.505,1.22
		c0,0.685-0.268,1.195-0.818,1.562C6.015,12.984,5.228,13.171,4.233,13.171z"/>
</g>
</svg>
