<?xml version="1.0" encoding="utf-8"?>
<!-- Generator: Adobe Illustrator 16.0.0, SVG Export Plug-In . SVG Version: 6.00 Build 0)  -->
<!DOCTYPE svg PUBLIC "-//W3C//DTD SVG 1.1//EN" "http://www.w3.org/Graphics/SVG/1.1/DTD/svg11.dtd">
<svg version="1.1" id="图层_1" xmlns="http://www.w3.org/2000/svg" xmlns:xlink="http://www.w3.org/1999/xlink" x="0px" y="0px"
	 width="20px" height="20px" viewBox="0 0 20 20" enable-background="new 0 0 20 20" xml:space="preserve">
<path fill="#A2A2A2" d="M19.189,16.182l-6.836-6.827l-1.775-1.772c-0.59-0.59-0.606-1.263-0.573-1.84
	c0.072-1.188,0.507-2.511-0.448-3.637C8.452,0.805,6.44-0.298,3.926,1.153l3.552,3.552c-0.782,1.201-1.776,2.19-2.977,2.974
	L0.95,4.128C-0.5,6.645,0.546,8.714,1.884,9.761c1.251,0.979,2.345,0.601,3.521,0.53c0.578-0.034,1.303-0.089,1.893,0.5l8.613,8.604
	c0.842,0.843,2.074,0.753,3.035-0.21C19.906,18.223,20.029,17.021,19.189,16.182z M17.261,18.637c-0.629,0-1.14-0.511-1.14-1.14
	c0-0.63,0.511-1.14,1.141-1.14c0.629,0,1.14,0.511,1.14,1.14S17.891,18.637,17.261,18.637z"/>
</svg>
