<?xml version="1.0" encoding="utf-8"?>
<!-- Generator: Adobe Illustrator 18.0.0, SVG Export Plug-In . SVG Version: 6.00 Build 0)  -->
<!DOCTYPE svg PUBLIC "-//W3C//DTD SVG 1.1//EN" "http://www.w3.org/Graphics/SVG/1.1/DTD/svg11.dtd">
<svg version="1.1" id="图层_1" xmlns="http://www.w3.org/2000/svg" xmlns:xlink="http://www.w3.org/1999/xlink" x="0px" y="0px"
	 viewBox="0 0 16 16" enable-background="new 0 0 16 16" xml:space="preserve">
<g>
	<polyline fill="none" stroke="#FFFFFF" stroke-linecap="round" stroke-linejoin="round" stroke-miterlimit="10" points="2.5,0.5 
		2.5,2.5 0.6,2.5 	"/>
	<line fill="none" stroke="#FFFFFF" stroke-linecap="round" stroke-miterlimit="10" x1="0.6" y1="0.5" x2="2.2" y2="2.2"/>
</g>
<g>
	<polyline fill="none" stroke="#FFFFFF" stroke-linecap="round" stroke-linejoin="round" stroke-miterlimit="10" points="15.5,2.5 
		13.5,2.5 13.5,0.5 	"/>
	<line fill="none" stroke="#FFFFFF" stroke-linecap="round" stroke-miterlimit="10" x1="15.5" y1="0.5" x2="13.8" y2="2.2"/>
</g>
<g>
	<polyline fill="none" stroke="#FFFFFF" stroke-linecap="round" stroke-linejoin="round" stroke-miterlimit="10" points="13.6,15.5 
		13.6,13.5 15.5,13.5 	"/>
	<line fill="none" stroke="#FFFFFF" stroke-linecap="round" stroke-miterlimit="10" x1="15.5" y1="15.5" x2="13.9" y2="13.8"/>
</g>
<g>
	<polyline fill="none" stroke="#FFFFFF" stroke-linecap="round" stroke-linejoin="round" stroke-miterlimit="10" points="0.6,13.5 
		2.6,13.5 2.6,15.5 	"/>
	<line fill="none" stroke="#FFFFFF" stroke-linecap="round" stroke-miterlimit="10" x1="0.6" y1="15.5" x2="2.3" y2="13.8"/>
</g>
<path fill="#FFFFFF" d="M13,12.2c0,0.5-0.4,0.8-0.8,0.8H3.8C3.4,13,3,12.6,3,12.2V3.8C3,3.4,3.4,3,3.8,3h8.3C12.6,3,13,3.4,13,3.8
	V12.2z"/>
</svg>
