<?xml version="1.0" encoding="utf-8"?>
<!-- Generator: Adobe Illustrator 18.0.0, SVG Export Plug-In . SVG Version: 6.00 Build 0)  -->
<!DOCTYPE svg PUBLIC "-//W3C//DTD SVG 1.1//EN" "http://www.w3.org/Graphics/SVG/1.1/DTD/svg11.dtd">
<svg version="1.1" id="图层_1" xmlns="http://www.w3.org/2000/svg" xmlns:xlink="http://www.w3.org/1999/xlink" x="0px" y="0px"
	 viewBox="0 0 16 16" enable-background="new 0 0 16 16" xml:space="preserve">
<polyline fill="none" stroke="#A2A2A2" stroke-linecap="round" stroke-linejoin="round" stroke-miterlimit="10" points="0.5,2.5 
	0.5,0.5 2.5,0.5 "/>
<polyline fill="none" stroke="#A2A2A2" stroke-linecap="round" stroke-linejoin="round" stroke-miterlimit="10" points="13.5,0.5 
	15.5,0.5 15.5,2.5 "/>
<line fill="none" stroke="#A2A2A2" stroke-linecap="round" stroke-miterlimit="10" x1="0.6" y1="0.7" x2="3.4" y2="3.5"/>
<line fill="none" stroke="#A2A2A2" stroke-linecap="round" stroke-miterlimit="10" x1="15.4" y1="0.5" x2="12.6" y2="3.4"/>
<polyline fill="none" stroke="#A2A2A2" stroke-linecap="round" stroke-linejoin="round" stroke-miterlimit="10" points="0.5,13.5 
	0.5,15.5 2.5,15.5 "/>
<polyline fill="none" stroke="#A2A2A2" stroke-linecap="round" stroke-linejoin="round" stroke-miterlimit="10" points="13.5,15.5 
	15.5,15.5 15.5,13.5 "/>
<line fill="none" stroke="#A2A2A2" stroke-linecap="round" stroke-miterlimit="10" x1="0.6" y1="15.4" x2="3.4" y2="12.6"/>
<line fill="none" stroke="#A2A2A2" stroke-linecap="round" stroke-miterlimit="10" x1="15.5" y1="15.5" x2="12.7" y2="12.7"/>
<path fill="#A2A2A2" d="M12.8,14H3.2C2.5,14,2,13.5,2,12.8V3.2C2,2.5,2.5,2,3.2,2h9.6C13.5,2,14,2.5,14,3.2v9.6
	C14,13.5,13.5,14,12.8,14z"/>
</svg>
