<?xml version="1.0" encoding="utf-8"?>
<!-- Generator: Adobe Illustrator 16.0.0, SVG Export Plug-In . SVG Version: 6.00 Build 0)  -->
<!DOCTYPE svg PUBLIC "-//W3C//DTD SVG 1.1//EN" "http://www.w3.org/Graphics/SVG/1.1/DTD/svg11.dtd">
<svg version="1.1" id="图层_1" xmlns="http://www.w3.org/2000/svg" xmlns:xlink="http://www.w3.org/1999/xlink" x="0px" y="0px"
	 width="38px" height="38px" viewBox="0 0 38 38" enable-background="new 0 0 38 38" xml:space="preserve">
<path id="info-2-icon_2_" fill="#A2A2A2" d="M18.646,4.75c7.874,0,14.25,6.374,14.25,14.25c0,7.877-6.374,14.25-14.25,14.25
	c-7.874,0-14.25-6.373-14.25-14.25C4.396,11.126,10.771,4.75,18.646,4.75 M18.646,2.375C9.463,2.375,2.021,9.818,2.021,19
	c0,9.183,7.442,16.625,16.625,16.625c9.182,0,16.625-7.442,16.625-16.625C35.271,9.818,27.827,2.375,18.646,2.375L18.646,2.375z
	 M15.559,26.125h-3.326c-0.395,0-0.712-0.32-0.712-0.712V12.587c0-0.392,0.317-0.712,0.712-0.712h3.326
	c0.394,0,0.712,0.32,0.712,0.712v12.826C16.271,25.805,15.952,26.125,15.559,26.125z M25.059,26.125h-3.326
	c-0.395,0-0.712-0.32-0.712-0.712V12.587c0-0.392,0.317-0.712,0.712-0.712h3.326c0.394,0,0.712,0.32,0.712,0.712v12.826
	C25.771,25.805,25.452,26.125,25.059,26.125z"/>
</svg>
