<?xml version="1.0" encoding="utf-8"?>
<!-- Generator: Adobe Illustrator 16.0.0, SVG Export Plug-In . SVG Version: 6.00 Build 0)  -->
<!DOCTYPE svg PUBLIC "-//W3C//DTD SVG 1.1//EN" "http://www.w3.org/Graphics/SVG/1.1/DTD/svg11.dtd">
<svg version="1.1" id="图层_1" xmlns="http://www.w3.org/2000/svg" xmlns:xlink="http://www.w3.org/1999/xlink" x="0px" y="0px"
	 width="38px" height="38px" viewBox="0 0 38 38" enable-background="new 0 0 38 38" xml:space="preserve">
<path id="info-2-icon_7_" fill="#FFFFFF" d="M18.643,4.75c7.877,0,14.253,6.374,14.253,14.25c0,7.874-6.374,14.25-14.253,14.25
	c-7.874,0-14.248-6.373-14.248-14.25C4.395,11.124,10.769,4.75,18.643,4.75 M18.645,2.375C9.463,2.375,2.02,9.818,2.02,19
	c0,9.183,7.443,16.625,16.625,16.625S35.271,28.183,35.271,19C35.271,9.818,27.827,2.375,18.645,2.375L18.645,2.375z M13.886,10.804
	l12.949,7.556c0.473,0.274,0.473,0.956,0,1.231l-12.951,7.552c-0.474,0.275-1.072-0.065-1.072-0.615V11.42
	C12.812,10.871,13.41,10.527,13.886,10.804z"/>
</svg>
