<?xml version="1.0" encoding="utf-8"?>
<!-- Generator: Adobe Illustrator 16.0.0, SVG Export Plug-In . SVG Version: 6.00 Build 0)  -->
<!DOCTYPE svg PUBLIC "-//W3C//DTD SVG 1.1//EN" "http://www.w3.org/Graphics/SVG/1.1/DTD/svg11.dtd">
<svg version="1.1" id="图层_1" xmlns="http://www.w3.org/2000/svg" xmlns:xlink="http://www.w3.org/1999/xlink" x="0px" y="0px"
	 width="20px" height="20px" viewBox="0 0 20 20" enable-background="new 0 0 20 20" xml:space="preserve">
<g>
	<path fill="#FFFFFF" d="M2.99,5.987H0.997C0.446,5.987,0,5.541,0,4.99V2.997C0,2.446,0.446,2,0.997,2H2.99
		c0.551,0,0.997,0.446,0.997,0.997V4.99C3.987,5.541,3.541,5.987,2.99,5.987z"/>
	<path fill="#FFFFFF" d="M18.106,5.987h-11.3C6.361,5.987,6,5.541,6,4.99V2.997C6,2.446,6.361,2,6.807,2h11.3
		c0.446,0,0.808,0.446,0.808,0.997V4.99C18.914,5.541,18.553,5.987,18.106,5.987z"/>
	<path fill="#FFFFFF" d="M2.99,12.945H0.997C0.446,12.945,0,12.499,0,11.948V9.954c0-0.55,0.446-0.996,0.997-0.996H2.99
		c0.551,0,0.997,0.446,0.997,0.996v1.994C3.987,12.499,3.541,12.945,2.99,12.945z"/>
	<path fill="#FFFFFF" d="M18.106,12.945h-11.3C6.361,12.945,6,12.499,6,11.948V9.954c0-0.55,0.361-0.996,0.807-0.996h11.3
		c0.446,0,0.808,0.446,0.808,0.996v1.994C18.914,12.499,18.553,12.945,18.106,12.945z"/>
	<path fill="#FFFFFF" d="M4,19.003C4,19.554,3.554,20,3.003,20H0.997C0.446,20,0,19.554,0,19.003v-2.006C0,16.446,0.446,16,0.997,16
		h2.006C3.554,16,4,16.446,4,16.997V19.003z"/>
	<path fill="#FFFFFF" d="M18.175,20h-11.3C6.43,20,6,19.394,6,18.844V16.85C6,16.3,6.43,16,6.875,16h11.3C18.62,16,19,16.3,19,16.85
		v1.994C19,19.394,18.62,20,18.175,20z"/>
</g>
</svg>
