<?xml version="1.0" encoding="utf-8"?>
<!-- Generator: Adobe Illustrator 16.0.0, SVG Export Plug-In . SVG Version: 6.00 Build 0)  -->
<!DOCTYPE svg PUBLIC "-//W3C//DTD SVG 1.1//EN" "http://www.w3.org/Graphics/SVG/1.1/DTD/svg11.dtd">
<svg version="1.1" id="图层_1" xmlns="http://www.w3.org/2000/svg" xmlns:xlink="http://www.w3.org/1999/xlink" x="0px" y="0px"
	 width="20px" height="20px" viewBox="0 0 20 20" enable-background="new 0 0 20 20" xml:space="preserve">
<path fill="#A2A2A2" d="M4.186,4.98H2.939c-0.344,0-0.622-0.278-0.622-0.622V3.113c0-0.344,0.278-0.623,0.622-0.623h1.246
	c0.344,0,0.622,0.279,0.622,0.623v1.245C4.808,4.702,4.529,4.98,4.186,4.98z"/>
<path fill="#A2A2A2" d="M16.637,4.98H7.921c-0.345,0-0.623-0.278-0.623-0.622V3.113c0-0.344,0.278-0.623,0.623-0.623h8.716
	c0.345,0,0.623,0.279,0.623,0.623v1.245C17.26,4.702,16.981,4.98,16.637,4.98z"/>
<path fill="#A2A2A2" d="M4.186,11.207H2.939c-0.344,0-0.622-0.279-0.622-0.623V9.339c0-0.345,0.278-0.622,0.622-0.622h1.246
	c0.344,0,0.622,0.277,0.622,0.622v1.245C4.808,10.928,4.529,11.207,4.186,11.207z"/>
<path fill="#A2A2A2" d="M16.637,11.207H7.921c-0.345,0-0.623-0.279-0.623-0.623V9.339c0-0.345,0.278-0.622,0.623-0.622h8.716
	c0.345,0,0.623,0.277,0.623,0.622v1.245C17.26,10.928,16.981,11.207,16.637,11.207z"/>
<path fill="#A2A2A2" d="M4.186,17.433H2.939c-0.344,0-0.622-0.278-0.622-0.622v-1.246c0-0.344,0.278-0.622,0.622-0.622h1.246
	c0.344,0,0.622,0.278,0.622,0.622v1.246C4.808,17.154,4.529,17.433,4.186,17.433z"/>
<path fill="#A2A2A2" d="M16.637,17.433H7.921c-0.345,0-0.623-0.278-0.623-0.622v-1.246c0-0.344,0.278-0.622,0.623-0.622h8.716
	c0.345,0,0.623,0.278,0.623,0.622v1.246C17.26,17.154,16.981,17.433,16.637,17.433z"/>
</svg>
