<?xml version="1.0" encoding="utf-8"?>
<!-- Generator: Adobe Illustrator 16.0.0, SVG Export Plug-In . SVG Version: 6.00 Build 0)  -->
<!DOCTYPE svg PUBLIC "-//W3C//DTD SVG 1.1//EN" "http://www.w3.org/Graphics/SVG/1.1/DTD/svg11.dtd">
<svg version="1.1" id="图层_1" xmlns="http://www.w3.org/2000/svg" xmlns:xlink="http://www.w3.org/1999/xlink" x="0px" y="0px"
	 width="16px" height="16px" viewBox="0 0 16 16" enable-background="new 0 0 16 16" xml:space="preserve">
<g id="图层_1_1_">
	
		<rect x="2.554" y="4.117" transform="matrix(-0.7072 -0.707 0.707 -0.7072 2.9835 10.4074)" fill="#A2A2A2" width="2.185" height="0.938"/>
	<polygon fill="#A2A2A2" points="4.75,3 2,3 2,5.69 	"/>
	
		<rect x="2.553" y="11.948" transform="matrix(-0.7072 0.707 -0.707 -0.7072 15.0028 18.621)" fill="#A2A2A2" width="2.185" height="0.938"/>
	<polygon fill="#A2A2A2" points="4.75,14 2,14 2,11.313 	"/>
	
		<rect x="12.262" y="4.117" transform="matrix(0.7071 -0.7071 0.7071 0.7071 0.668 10.7865)" fill="#A2A2A2" width="2.185" height="0.939"/>
	<polygon fill="#A2A2A2" points="12.25,3 15,3 15,5.69 	"/>
	
		<rect x="12.261" y="11.948" transform="matrix(0.7073 0.7069 -0.7069 0.7073 12.6855 -5.8053)" fill="#A2A2A2" width="2.186" height="0.938"/>
	<polygon fill="#A2A2A2" points="12.25,14 15,14 15,11.313 	"/>
	<path fill="#A2A2A2" d="M4,5v7h9V5H4z M12,11H5V6h7V11z"/>
	<rect x="4.583" y="5.69" fill="#A2A2A2" width="7.667" height="5.623"/>
</g>
</svg>
