<?xml version="1.0" encoding="utf-8"?>
<!-- Generator: Adobe Illustrator 16.0.0, SVG Export Plug-In . SVG Version: 6.00 Build 0)  -->
<!DOCTYPE svg PUBLIC "-//W3C//DTD SVG 1.1//EN" "http://www.w3.org/Graphics/SVG/1.1/DTD/svg11.dtd">
<svg version="1.1" id="图层_1" xmlns="http://www.w3.org/2000/svg" xmlns:xlink="http://www.w3.org/1999/xlink" x="0px" y="0px"
	 width="16px" height="16px" viewBox="0 0 16 16" enable-background="new 0 0 16 16" xml:space="preserve">
<path id="pin-2-icon_4_" fill="#A2A2A2" d="M6.096,11.554L3.61,14.039H2.196l3.193-3.192L6.096,11.554z M13.02,5.752
	c-0.654,0.189-1.409,0.456-2.12,1.165c-1.634,1.635-0.698,2.907-1.987,4.681l-3.629-3.63c1.772-1.29,2.937-0.454,4.575-2.092
	c0.712-0.713,1.072-1.446,1.269-2.016 M14.957,6.238l-4.303-4.303c-0.717,0.786-0.334,1.97-1.546,3.183l0,0
	C7.534,6.691,5.872,5.422,3.618,7.677l5.599,5.599c2.255-2.255,0.99-3.922,2.56-5.491C12.979,6.582,14.171,6.955,14.957,6.238z"/>
</svg>
