<?xml version="1.0" encoding="utf-8"?>
<!-- Generator: Adobe Illustrator 16.0.0, SVG Export Plug-In . SVG Version: 6.00 Build 0)  -->
<!DOCTYPE svg PUBLIC "-//W3C//DTD SVG 1.1//EN" "http://www.w3.org/Graphics/SVG/1.1/DTD/svg11.dtd">
<svg version="1.1" id="图层_1" xmlns="http://www.w3.org/2000/svg" xmlns:xlink="http://www.w3.org/1999/xlink" x="0px" y="0px"
	 width="16px" height="16px" viewBox="0 0 16 16" enable-background="new 0 0 16 16" xml:space="preserve">
<path id="pin-2-icon_3_" fill="#FFFFFF" d="M4.973,8.522H1.458l-1-1h4.515V8.522z M13.971,9.316
	c-0.596-0.329-1.319-0.675-2.323-0.676c-2.312,0-2.549,1.562-4.715,1.904l0-5.133c2.165,0.341,2.397,1.756,4.714,1.756
	c1.008,0,1.781-0.265,2.323-0.528 M14.998,11.03l0-6.085c-1.063,0.049-1.629,1.156-3.344,1.157l0,0
	C9.428,6.102,9.151,4.028,5.962,4.028v7.918c3.189,0.001,3.473-2.072,5.693-2.072C13.355,9.874,13.935,10.981,14.998,11.03z"/>
</svg>
