<?xml version="1.0" encoding="utf-8"?>
<!-- Generator: Adobe Illustrator 16.0.0, SVG Export Plug-In . SVG Version: 6.00 Build 0)  -->
<!DOCTYPE svg PUBLIC "-//W3C//DTD SVG 1.1//EN" "http://www.w3.org/Graphics/SVG/1.1/DTD/svg11.dtd">
<svg version="1.1" id="图层_1" xmlns="http://www.w3.org/2000/svg" xmlns:xlink="http://www.w3.org/1999/xlink" x="0px" y="0px"
	 width="16px" height="16px" viewBox="0 0 16 16" enable-background="new 0 0 16 16" xml:space="preserve">
<path fill="#FFFFFF" d="M6.016,7.984c0-1.468,0.803-2.736,1.984-3.428V2.4c0-0.165-0.188-0.26-0.32-0.16L5,5H2.3
	C2.134,5,2,5.135,2,5.3v5.4C2,10.865,2.134,11,2.3,11H5l2.68,2.76C7.812,13.859,8,13.765,8,13.6v-2.188
	C6.818,10.721,6.016,9.452,6.016,7.984z"/>
<path fill="#FFFFFF" d="M13.121,5.879c-1.171-1.172-3.071-1.172-4.242,0c-1.172,1.172-1.172,3.071,0,4.242
	c1.171,1.172,3.071,1.172,4.242,0C14.293,8.949,14.293,7.051,13.121,5.879z M9.232,9.768c-0.977-0.977-0.977-2.559,0-3.535
	c0.976-0.977,2.559-0.977,3.535,0c0.977,0.977,0.977,2.559,0,3.535C11.792,10.744,10.208,10.744,9.232,9.768z M12.235,9.593
	L9.407,6.765l0.354-0.354l2.828,2.828L12.235,9.593z"/>
</svg>
