<?xml version="1.0" encoding="iso-8859-1"?>
<!-- Generator: Adobe Illustrator 18.0.0, SVG Export Plug-In . SVG Version: 6.00 Build 0)  -->
<!DOCTYPE svg PUBLIC "-//W3C//DTD SVG 1.1//EN" "http://www.w3.org/Graphics/SVG/1.1/DTD/svg11.dtd">
<svg version="1.1" id="&#x56FE;&#x5C42;_1" xmlns="http://www.w3.org/2000/svg" xmlns:xlink="http://www.w3.org/1999/xlink" x="0px"
	 y="0px" viewBox="0 0 16 16" style="enable-background:new 0 0 16 16;" xml:space="preserve">
<g>
	<path style="fill:#A2A2A2;" d="M7.691,2.049C7.506,1.972,7.289,2.014,7.146,2.157L4.293,5.011H1.5c-0.276,0-0.5,0.224-0.5,0.5v5
		c0,0.276,0.224,0.5,0.5,0.5h2.793l2.854,2.854c0.096,0.096,0.224,0.146,0.354,0.146c0.064,0,0.13-0.013,0.191-0.038
		C7.878,13.896,8,13.713,8,13.511v-11C8,2.309,7.878,2.126,7.691,2.049z"/>
	<path style="fill:#A2A2A2;" d="M10.773,7.233c-0.1-0.238-0.244-0.452-0.429-0.637C10.16,6.413,9.946,6.268,9.709,6.168
		C9.453,6.061,9.161,6.181,9.054,6.435S9.066,6.982,9.32,7.09c0.118,0.05,0.225,0.122,0.317,0.214
		C9.73,7.397,9.802,7.503,9.852,7.622C9.904,7.745,9.93,7.876,9.93,8.011c0,0.135-0.026,0.266-0.079,0.391
		C9.802,8.519,9.73,8.626,9.638,8.718C9.546,8.81,9.438,8.882,9.319,8.933C9.065,9.041,8.946,9.334,9.055,9.588
		c0.08,0.19,0.266,0.305,0.46,0.305c0.065,0,0.132-0.013,0.195-0.04c0.238-0.101,0.452-0.245,0.636-0.429
		c0.185-0.185,0.328-0.399,0.427-0.634c0.105-0.247,0.158-0.509,0.158-0.779C10.93,7.741,10.878,7.479,10.773,7.233z"/>
</g>
</svg>
