<?xml version="1.0" encoding="iso-8859-1"?>
<!-- Generator: Adobe Illustrator 18.0.0, SVG Export Plug-In . SVG Version: 6.00 Build 0)  -->
<!DOCTYPE svg PUBLIC "-//W3C//DTD SVG 1.1//EN" "http://www.w3.org/Graphics/SVG/1.1/DTD/svg11.dtd">
<svg version="1.1" id="&#x56FE;&#x5C42;_1" xmlns="http://www.w3.org/2000/svg" xmlns:xlink="http://www.w3.org/1999/xlink" x="0px"
	 y="0px" viewBox="0 0 16 16" style="enable-background:new 0 0 16 16;" xml:space="preserve">
<g>
	<path style="fill:#A2A2A2;" d="M7.7,2.049C7.513,1.972,7.298,2.014,7.155,2.157L4.302,5.011H1.509c-0.276,0-0.5,0.224-0.5,0.5v5
		c0,0.276,0.224,0.5,0.5,0.5h2.793l2.854,2.854c0.096,0.096,0.224,0.146,0.354,0.146c0.064,0,0.129-0.013,0.191-0.038
		c0.187-0.077,0.309-0.26,0.309-0.462v-11C8.009,2.309,7.887,2.126,7.7,2.049z"/>
	<path style="fill:#A2A2A2;" d="M14.541,5.698c-0.304-0.715-0.736-1.357-1.286-1.907c-0.551-0.551-1.192-0.984-1.907-1.287
		c-0.252-0.106-0.548,0.011-0.655,0.266c-0.108,0.254,0.011,0.547,0.265,0.655c0.597,0.252,1.131,0.613,1.591,1.073
		c0.459,0.458,0.819,0.994,1.072,1.59c0.262,0.616,0.394,1.271,0.394,1.944s-0.132,1.328-0.393,1.944
		c-0.254,0.597-0.615,1.131-1.073,1.59c-0.46,0.46-0.995,0.821-1.59,1.072c-0.255,0.108-0.374,0.401-0.267,0.655
		c0.081,0.191,0.267,0.306,0.461,0.306c0.065,0,0.131-0.013,0.194-0.039c0.715-0.303,1.356-0.735,1.908-1.287
		c0.55-0.55,0.982-1.19,1.287-1.907c0.313-0.74,0.472-1.526,0.472-2.333C15.014,7.224,14.854,6.439,14.541,5.698z"/>
	<path style="fill:#A2A2A2;" d="M12.698,9.588c0.209-0.492,0.315-1.016,0.315-1.556s-0.106-1.064-0.315-1.556
		c-0.202-0.478-0.491-0.905-0.857-1.271c-0.365-0.366-0.793-0.655-1.271-0.857c-0.252-0.109-0.547,0.01-0.655,0.264
		s0.01,0.548,0.265,0.656c0.358,0.153,0.68,0.37,0.954,0.645c0.275,0.274,0.492,0.596,0.645,0.954
		c0.156,0.368,0.235,0.76,0.235,1.166c0,0.405-0.079,0.797-0.235,1.166c-0.152,0.358-0.369,0.68-0.645,0.955
		s-0.597,0.492-0.953,0.643c-0.255,0.108-0.374,0.401-0.267,0.655c0.081,0.191,0.267,0.306,0.461,0.306
		c0.065,0,0.131-0.013,0.194-0.039c0.477-0.202,0.904-0.49,1.271-0.857S12.496,10.065,12.698,9.588z"/>
	<path style="fill:#A2A2A2;" d="M10.781,8.79c0.105-0.247,0.158-0.509,0.158-0.779c0-0.27-0.053-0.532-0.158-0.78
		c-0.102-0.238-0.245-0.452-0.428-0.634C10.17,6.414,9.957,6.27,9.719,6.169c-0.256-0.106-0.548,0.01-0.655,0.266
		C8.956,6.688,9.074,6.982,9.328,7.089c0.118,0.05,0.228,0.124,0.318,0.214c0.092,0.091,0.164,0.199,0.215,0.318
		c0.052,0.123,0.078,0.253,0.078,0.389c0,0.135-0.026,0.266-0.078,0.388c-0.051,0.12-0.124,0.228-0.215,0.319
		C9.556,8.81,9.448,8.882,9.327,8.933C9.073,9.042,8.955,9.336,9.063,9.589c0.081,0.189,0.266,0.304,0.46,0.304
		c0.065,0,0.132-0.013,0.196-0.04c0.238-0.102,0.452-0.246,0.635-0.429C10.536,9.242,10.681,9.028,10.781,8.79z"/>
</g>
</svg>
