<?xml version="1.0" encoding="iso-8859-1"?>
<!-- Generator: Adobe Illustrator 18.0.0, SVG Export Plug-In . SVG Version: 6.00 Build 0)  -->
<!DOCTYPE svg PUBLIC "-//W3C//DTD SVG 1.1//EN" "http://www.w3.org/Graphics/SVG/1.1/DTD/svg11.dtd">
<svg version="1.1" id="&#x56FE;&#x5C42;_1" xmlns="http://www.w3.org/2000/svg" xmlns:xlink="http://www.w3.org/1999/xlink" x="0px"
	 y="0px" viewBox="0 0 16 16" style="enable-background:new 0 0 16 16;" xml:space="preserve">
<g>
	<path style="fill:#FFFFFF;" d="M7.692,2.068C7.506,1.991,7.29,2.034,7.147,2.177L4.293,5.03H1.5C1.224,5.03,1,5.254,1,5.53v5
		c0,0.276,0.224,0.5,0.5,0.5h2.793l2.854,2.854C7.242,13.979,7.37,14.03,7.5,14.03c0.064,0,0.13-0.013,0.191-0.038
		C7.878,13.915,8,13.732,8,13.53v-11C8,2.328,7.878,2.146,7.692,2.068z"/>
	<path style="fill:#FFFFFF;" d="M13.485,7.498h-1.492V6.029c0-0.276-0.224-0.5-0.5-0.5s-0.5,0.224-0.5,0.5v1.469H9.5
		c-0.276,0-0.5,0.224-0.5,0.5s0.224,0.5,0.5,0.5h1.492v1.532c0,0.276,0.224,0.5,0.5,0.5s0.5-0.224,0.5-0.5V8.498h1.492
		c0.276,0,0.5-0.224,0.5-0.5S13.761,7.498,13.485,7.498z"/>
</g>
</svg>
