<?xml version="1.0" encoding="utf-8"?>
<!-- Generator: Adobe Illustrator 16.0.0, SVG Export Plug-In . SVG Version: 6.00 Build 0)  -->
<!DOCTYPE svg PUBLIC "-//W3C//DTD SVG 1.1//EN" "http://www.w3.org/Graphics/SVG/1.1/DTD/svg11.dtd">
<svg version="1.1" id="图层_1" xmlns="http://www.w3.org/2000/svg" xmlns:xlink="http://www.w3.org/1999/xlink" x="0px" y="0px"
	 width="16px" height="16px" viewBox="0 0 16 16" enable-background="new 0 0 16 16" xml:space="preserve">
<g>
	<path fill="#A2A2A2" d="M9.245,9.626c-0.129,0-0.234-0.097-0.234-0.216c0-0.091,0.041-0.131,0.272-0.268
		C9.58,8.967,10.029,8.702,10.029,8c0-0.703-0.449-0.968-0.746-1.143C9.052,6.722,9.011,6.682,9.011,6.59
		c0-0.118,0.105-0.216,0.234-0.216c0.049,0,0.07,0.008,0.074,0.011C10.016,6.637,10.496,7.298,10.496,8
		c0,0.695-0.476,1.356-1.155,1.607C9.313,9.619,9.295,9.626,9.245,9.626z"/>
</g>
<path fill="#A2A2A2" d="M5,5H2.3C2.134,5,2,5.135,2,5.3v5.4C2,10.865,2.134,11,2.3,11H5l2.68,2.76C7.812,13.859,8,13.765,8,13.6V2.4
	c0-0.165-0.188-0.26-0.32-0.16L5,5z"/>
</svg>
