<?xml version="1.0" encoding="iso-8859-1"?>
<!-- Generator: Adobe Illustrator 18.0.0, SVG Export Plug-In . SVG Version: 6.00 Build 0)  -->
<!DOCTYPE svg PUBLIC "-//W3C//DTD SVG 1.1//EN" "http://www.w3.org/Graphics/SVG/1.1/DTD/svg11.dtd">
<svg version="1.1" id="&#x56FE;&#x5C42;_1" xmlns="http://www.w3.org/2000/svg" xmlns:xlink="http://www.w3.org/1999/xlink" x="0px"
	 y="0px" viewBox="0 0 16 16" style="enable-background:new 0 0 16 16;" xml:space="preserve">
<g>
	<path style="fill:#A2A2A2;" d="M7.683,2.049C7.497,1.972,7.28,2.014,7.138,2.157L4.284,5.011H1.491c-0.276,0-0.5,0.224-0.5,0.5v5
		c0,0.276,0.224,0.5,0.5,0.5h2.793l2.854,2.854c0.096,0.096,0.224,0.146,0.354,0.146c0.064,0,0.13-0.013,0.191-0.038
		c0.187-0.077,0.309-0.26,0.309-0.462v-11C7.991,2.309,7.869,2.126,7.683,2.049z"/>
	<path style="fill:#A2A2A2;" d="M12.681,6.476C12.479,6,12.191,5.573,11.823,5.205c-0.368-0.367-0.796-0.655-1.271-0.857
		C10.3,4.24,10.003,4.357,9.897,4.612C9.788,4.867,9.907,5.16,10.161,5.268c0.357,0.151,0.679,0.368,0.955,0.644
		c0.275,0.276,0.492,0.598,0.644,0.954c0.157,0.371,0.236,0.763,0.236,1.167s-0.079,0.795-0.235,1.166
		c-0.151,0.356-0.368,0.678-0.644,0.954c-0.278,0.277-0.6,0.494-0.955,0.644c-0.255,0.107-0.374,0.4-0.267,0.655
		c0.081,0.191,0.267,0.306,0.461,0.306c0.065,0,0.131-0.013,0.194-0.039c0.475-0.2,0.902-0.489,1.273-0.858
		c0.367-0.368,0.655-0.796,0.857-1.271c0.209-0.494,0.314-1.018,0.314-1.555S12.891,6.971,12.681,6.476z"/>
	<path style="fill:#A2A2A2;" d="M10.765,8.788c0.104-0.247,0.156-0.509,0.156-0.777c0-0.269-0.053-0.53-0.157-0.78
		c-0.102-0.238-0.245-0.452-0.428-0.634c-0.184-0.184-0.398-0.328-0.637-0.429C9.444,6.061,9.152,6.181,9.044,6.435
		S9.057,6.982,9.311,7.09C9.43,7.14,9.537,7.212,9.629,7.304C9.721,7.395,9.793,7.502,9.843,7.62
		c0.052,0.125,0.078,0.256,0.078,0.391S9.895,8.277,9.844,8.399C9.793,8.519,9.72,8.627,9.629,8.718
		C9.538,8.81,9.431,8.882,9.31,8.933C9.056,9.041,8.937,9.334,9.045,9.588c0.08,0.19,0.266,0.305,0.46,0.305
		c0.065,0,0.132-0.013,0.195-0.04c0.239-0.102,0.453-0.245,0.637-0.429C10.519,9.242,10.663,9.028,10.765,8.788z"/>
</g>
</svg>
