<?xml version="1.0" encoding="utf-8"?>
<!-- Generator: Adobe Illustrator 16.0.0, SVG Export Plug-In . SVG Version: 6.00 Build 0)  -->
<!DOCTYPE svg PUBLIC "-//W3C//DTD SVG 1.1//EN" "http://www.w3.org/Graphics/SVG/1.1/DTD/svg11.dtd">
<svg version="1.1" id="图层_1" xmlns="http://www.w3.org/2000/svg" xmlns:xlink="http://www.w3.org/1999/xlink" x="0px" y="0px"
	 width="16px" height="16px" viewBox="0 0 16 16" enable-background="new 0 0 16 16" xml:space="preserve">
<g>
	<path fill="#A2A2A2" d="M9.245,9.626c-0.129,0-0.234-0.098-0.234-0.216c0-0.091,0.041-0.131,0.272-0.268
		C9.58,8.967,10.029,8.702,10.029,8c0-0.703-0.449-0.968-0.746-1.143C9.052,6.722,9.011,6.682,9.011,6.59
		c0-0.118,0.105-0.216,0.234-0.216c0.049,0,0.07,0.008,0.074,0.01C10.016,6.637,10.496,7.298,10.496,8
		c0,0.695-0.476,1.356-1.155,1.607C9.313,9.619,9.295,9.626,9.245,9.626z"/>
	<path fill="#A2A2A2" d="M10.129,11.516c-0.132,0-0.242-0.096-0.242-0.216c0-0.063,0.021-0.137,0.168-0.208l0.084-0.04
		c0.22-0.104,0.422-0.197,0.626-0.338c0.943-0.627,1.507-1.641,1.507-2.714c0-1.072-0.565-2.087-1.511-2.716
		c-0.197-0.136-0.394-0.229-0.602-0.326l-0.105-0.051c-0.147-0.07-0.168-0.145-0.168-0.208c0-0.113,0.109-0.215,0.233-0.215
		c0.036,0,0.075,0.008,0.114,0.021C11.731,5.08,12.74,6.485,12.74,8c0,1.516-1.012,2.922-2.52,3.5
		C10.196,11.509,10.156,11.516,10.129,11.516z"/>
</g>
<path fill="#A2A2A2" d="M5,5H2.3C2.134,5,2,5.135,2,5.3v5.4C2,10.865,2.134,11,2.3,11H5l2.68,2.76C7.812,13.859,8,13.765,8,13.6V2.4
	c0-0.165-0.188-0.26-0.32-0.16L5,5z"/>
</svg>
