<?xml version="1.0" encoding="utf-8"?>
<!-- Generator: Adobe Illustrator 16.0.0, SVG Export Plug-In . SVG Version: 6.00 Build 0)  -->
<!DOCTYPE svg PUBLIC "-//W3C//DTD SVG 1.1//EN" "http://www.w3.org/Graphics/SVG/1.1/DTD/svg11.dtd">
<svg version="1.1" id="图层_1" xmlns="http://www.w3.org/2000/svg" xmlns:xlink="http://www.w3.org/1999/xlink" x="0px" y="0px"
	 width="16px" height="16px" viewBox="0 0 16 16" enable-background="new 0 0 16 16" xml:space="preserve">
<g>
	<g>
		<path fill="#FFFFFF" d="M9.215,9.626c-0.129,0-0.234-0.097-0.234-0.216c0-0.091,0.041-0.131,0.272-0.268
			C9.55,8.967,9.999,8.702,9.999,8c0-0.703-0.449-0.968-0.746-1.143C9.021,6.722,8.98,6.682,8.98,6.59
			c0-0.118,0.105-0.216,0.234-0.216c0.05,0,0.07,0.008,0.074,0.011C9.986,6.637,10.466,7.298,10.466,8
			c0,0.695-0.476,1.356-1.155,1.607C9.283,9.619,9.266,9.626,9.215,9.626z"/>
		<path fill="#FFFFFF" d="M10.1,11.516c-0.133,0-0.242-0.096-0.242-0.215c0-0.064,0.021-0.137,0.168-0.209l0.084-0.04
			c0.221-0.104,0.422-0.196,0.627-0.337c0.942-0.628,1.507-1.642,1.507-2.715c0-1.072-0.565-2.087-1.511-2.716
			c-0.197-0.136-0.394-0.228-0.602-0.326l-0.105-0.051C9.878,4.838,9.857,4.763,9.857,4.699c0-0.113,0.109-0.215,0.233-0.215
			c0.036,0,0.075,0.008,0.114,0.021C11.701,5.08,12.71,6.486,12.71,8c0,1.516-1.012,2.922-2.52,3.5
			C10.166,11.51,10.126,11.516,10.1,11.516z"/>
		<path fill="#FFFFFF" d="M10.976,13.4c-0.124,0-0.232-0.102-0.232-0.216c0-0.074,0.009-0.124,0.181-0.216
			c0.052-0.027,0.112-0.05,0.171-0.074c0.07-0.025,0.143-0.054,0.212-0.088c0.288-0.143,0.536-0.283,0.759-0.431
			c1.517-1.024,2.422-2.659,2.422-4.376c0-1.718-0.905-3.353-2.421-4.374c-0.222-0.147-0.477-0.292-0.758-0.431
			C11.237,3.16,11.162,3.129,11.087,3.1c-0.059-0.021-0.115-0.043-0.169-0.07c-0.166-0.088-0.175-0.139-0.175-0.214
			c0-0.114,0.108-0.216,0.232-0.216c0.032,0,0.073,0.008,0.116,0.022C13.435,3.543,14.954,5.654,14.954,8
			c0,2.347-1.522,4.459-3.878,5.383C11.049,13.393,11.01,13.4,10.976,13.4z"/>
	</g>
	<path fill="#FFFFFF" d="M5,5H2.3C2.134,5,2,5.135,2,5.3v5.4C2,10.865,2.134,11,2.3,11H5l2.68,2.76C7.812,13.859,8,13.765,8,13.6
		V2.4c0-0.165-0.188-0.26-0.32-0.16L5,5z"/>
</g>
</svg>
